SplineFontDB: 3.2
FontName: ChromSans-Italic
FullName: Chrom Sans Italic
FamilyName: Chrom Sans
Weight: Regular
Copyright:                                           
Version: 001.001
ItalicAngle: -12
UnderlinePosition: -100
UnderlineWidth: 50
Ascent: 800
Descent: 200
InvalidEm: 0
sfntRevision: 0x00000000
LayerCount: 2
Layer: 0 0 "Back" 1
Layer: 1 0 "Fore" 0
StyleMap: 0x0000
FSType: 0
OS2Version: 0
OS2_WeightWidthSlopeOnly: 0
OS2_UseTypoMetrics: 0
CreationTime: 0
ModificationTime: 1757284879
OS2TypoAscent: 0
OS2TypoAOffset: 0
OS2TypoDescent: 0
OS2TypoDOffset: 0
OS2TypoLinegap: 0
OS2WinAscent: 0
OS2WinAOffset: 0
OS2WinDescent: 0
OS2WinDOffset: 0
HheadAscent: 0
HheadAOffset: 0
HheadDescent: 0
HheadDOffset: 0
DEI: 91125
Encoding: AdobeStandard
UnicodeInterp: none
NameList: AGL For New Fonts
DisplaySize: -48
AntiAlias: 1
FitToEm: 0
BeginPrivate: 9
BlueValues 23 [-19 0 523 538 718 737]
OtherBlues 19 [-220 -207 349 358]
FamilyBlues 23 [-19 0 523 538 718 737]
FamilyOtherBlues 11 [-220 -207]
BlueScale 1 0
StdHW 4 [81]
StdVW 4 [90]
StemSnapH 7 [74 81]
StemSnapV 8 [90 100]
EndPrivate
BeginChars: 336 229

StartChar: A
Encoding: 65 65 0
Width: 667
Flags: HMW
HStem: 0 21G<14 14 14 119 561 561 561 654> 206 74<275 514 275 526 234 514> 698 20G<423 536 536 536>
LayerCount: 2
Fore
SplineSet
275 280 m 1
 514 280 l 1
 468 640 l 1
 466 640 l 1
 275 280 l 1
14 0 m 1
 423 718 l 1
 536 718 l 1
 654 0 l 1
 561 0 l 1
 526 206 l 1
 234 206 l 1
 119 0 l 1
 14 0 l 1
EndSplineSet
EndChar

StartChar: AE
Encoding: 225 198 1
Width: 1000
Flags: HMW
HStem: 0 81<593 991> 205 81<290 518 240 535> 332 81<662 1012 645 1029> 637 81<505 608 505 505 709 1080 709 709>
LayerCount: 2
Fore
SplineSet
290 286 m 1
 535 286 l 1
 608 637 l 1
 505 637 l 1
 290 286 l 1
8 0 m 1
 451 718 l 1
 1097 718 l 1
 1080 637 l 1
 709 637 l 1
 662 413 l 1
 1029 413 l 1
 1012 332 l 1
 645 332 l 1
 593 81 l 1
 1008 81 l 1
 991 0 l 1
 475 0 l 1
 518 205 l 1
 240 205 l 1
 116 0 l 1
 8 0 l 1
EndSplineSet
EndChar

StartChar: Aacute
Encoding: 256 193 2
Width: 667
Flags: HMW
HStem: 0 21G<14 14 14 119 561 561 561 654> 213 77<276 513 276 525 235 513> 909 20G<571 683 683 683>
LayerCount: 2
Fore
SplineSet
276 290 m 1
 513 290 l 1
 467 658 l 1
 465 658 l 1
 276 290 l 1
14 0 m 1
 422 738 l 1
 535 738 l 1
 654 0 l 1
 561 0 l 1
 525 213 l 1
 235 213 l 1
 119 0 l 1
 14 0 l 1
480 794 m 1
 571 929 l 1
 683 929 l 1
 553 794 l 1
 480 794 l 1
EndSplineSet
EndChar

StartChar: Acircumflex
Encoding: 257 194 3
Width: 667
Flags: HMW
HStem: 0 21G<14 14 14 119 561 561 561 654> 213 77<276 513 276 525 235 513> 794 135<307 534 307 534 517 517 517 534 437 595>
LayerCount: 2
Fore
SplineSet
276 290 m 1
 513 290 l 1
 467 658 l 1
 465 658 l 1
 276 290 l 1
14 0 m 1
 422 738 l 1
 535 738 l 1
 654 0 l 1
 561 0 l 1
 525 213 l 1
 235 213 l 1
 119 0 l 1
 14 0 l 1
307 794 m 1
 437 929 l 1
 534 929 l 1
 595 794 l 1
 517 794 l 1
 478 881 l 1
 398 794 l 1
 307 794 l 1
EndSplineSet
EndChar

StartChar: Adieresis
Encoding: 258 196 4
Width: 667
Flags: HMW
HStem: 0 21G<14 14 14 119 561 561 561 654> 213 77<276 513 276 525 235 513> 801 100<361 474 382 453 382 541 562 633>
LayerCount: 2
Fore
SplineSet
276 290 m 1
 513 290 l 1
 467 658 l 1
 465 658 l 1
 276 290 l 1
14 0 m 1
 422 738 l 1
 535 738 l 1
 654 0 l 1
 561 0 l 1
 525 213 l 1
 235 213 l 1
 119 0 l 1
 14 0 l 1
361 801 m 1
 382 901 l 1
 474 901 l 1
 453 801 l 1
 361 801 l 1
541 801 m 1
 562 901 l 1
 654 901 l 1
 633 801 l 1
 541 801 l 1
EndSplineSet
EndChar

StartChar: Agrave
Encoding: 259 192 5
Width: 667
Flags: HMW
HStem: 0 21G<14 14 14 119 561 561 561 654> 213 77<276 513 276 525 235 513> 789 140<484 484 484 496 389 554>
LayerCount: 2
Fore
SplineSet
276 290 m 1
 513 290 l 1
 467 658 l 1
 465 658 l 1
 276 290 l 1
14 0 m 1
 422 738 l 1
 535 738 l 1
 654 0 l 1
 561 0 l 1
 525 213 l 1
 235 213 l 1
 119 0 l 1
 14 0 l 1
484 789 m 1
 389 929 l 1
 496 929 l 1
 554 789 l 1
 484 789 l 1
EndSplineSet
EndChar

StartChar: Aring
Encoding: 260 197 6
Width: 667
Flags: HMW
HStem: 0 21G<14 14 14 119 561 561 561 654> 213 77<276 513 276 525 235 513> 773 37<479 507.5 479 517> 951 21G<468.5 517.5>
VStem: 404 37<846.5 875.5 846.5 887> 545 37<846.5 876>
LayerCount: 2
Fore
SplineSet
276 290 m 1
 513 290 l 1
 467 658 l 1
 465 658 l 1
 276 290 l 1
14 0 m 1
 422 738 l 1
 535 738 l 1
 654 0 l 1
 561 0 l 1
 525 213 l 1
 235 213 l 1
 119 0 l 1
 14 0 l 1
441 861 m 0
 441 832 465 810 493 810 c 0
 522 810 545 832 545 861 c 0
 545 891 522 914 493 914 c 0
 464 914 441 890 441 861 c 0
404 862 m 0
 404 912 444 951 493 951 c 0
 542 951 582 912 582 862 c 0
 582 812 541 773 493 773 c 0
 445 773 404 812 404 862 c 0
EndSplineSet
EndChar

StartChar: Atilde
Encoding: 261 195 7
Width: 667
Flags: HMW
HStem: 0 21G<14 14 14 119 561 561 561 654> 213 77<276 513 276 525 235 513> 808 106 897 20G<434.5 482.5>
LayerCount: 2
Fore
SplineSet
276 290 m 1
 513 290 l 1
 467 658 l 1
 465 658 l 1
 276 290 l 1
14 0 m 1
 422 738 l 1
 535 738 l 1
 654 0 l 1
 561 0 l 1
 525 213 l 1
 235 213 l 1
 119 0 l 1
 14 0 l 1
369 808 m 1
 384 866 401 917 468 917 c 0
 497 917 524 906 548 896 c 0
 571 886 590 876 605 876 c 0
 630 876 636 900 640 914 c 1
 699 914 l 1
 694 861 661 807 603 807 c 0
 582 807 562 820 539 831 c 0
 520 840 498 849 470 849 c 0
 446 849 435 832 430 808 c 1
 369 808 l 1
EndSplineSet
EndChar

StartChar: B
Encoding: 66 66 8
Width: 667
Flags: HMW
HStem: 0 81<191 361 361 413.5 191 435> 330 82<263 414 414 435 245 414> 637 81<312 461 312 312>
VStem: 576 102
LayerCount: 2
Fore
SplineSet
263 412 m 1
 414 412 l 2
 504 412 618 430 618 541 c 0
 618 636 521 637 461 637 c 2
 312 637 l 1
 263 412 l 1
191 81 m 1
 361 81 l 2
 466 81 593 102 593 227 c 0
 593 329 497 330 435 330 c 2
 245 330 l 1
 191 81 l 1
74 0 m 1
 230 718 l 1
 461 718 l 2
 580 718 712 683 712 541 c 0
 712 423 617 390 574 376 c 1
 631 357 695 317 695 227 c 0
 695 121 598 0 435 0 c 2
 74 0 l 1
EndSplineSet
EndChar

StartChar: C
Encoding: 67 67 9
Width: 722
Flags: HMW
HStem: -19 81<373.5 488.5 373.5 489.5> 656 81<406 547.5 384 575>
VStem: 128 100
LayerCount: 2
Fore
SplineSet
647 251 m 1
 747 237 l 1
 689 84 573 -19 406 -19 c 0
 244 -19 108 70 108 294 c 0
 108 536 267 737 501 737 c 0
 594 737 760 697 782 507 c 1
 687 499 l 1
 680 540 649 656 501 656 c 0
 311 656 208 473 208 294 c 0
 208 103 334 62 413 62 c 0
 564 62 629 193 647 251 c 1
EndSplineSet
EndChar

StartChar: Ccedilla
Encoding: 262 199 10
Width: 722
Flags: HMW
HStem: -225 59<278.5 301 270.5 381> -22 81<427 427> 656 81<406 548 384.5 576>
VStem: 108 101<221.5 392 206 424>
LayerCount: 2
Fore
SplineSet
229 -163 m 1
 262 -164 266 -166 275 -166 c 0
 327 -166 399 -167 399 -123 c 0
 399 -104 381 -88 324 -87 c 1
 357 -19 l 1
 177 5 108 141 108 302 c 0
 108 546 267 737 502 737 c 0
 594 737 761 698 782 506 c 1
 687 498 l 1
 679 539 650 656 502 656 c 0
 310 656 209 482 209 302 c 0
 209 110 331 59 414 59 c 0
 566 59 629 190 648 249 c 1
 748 236 l 1
 663 8 488 -19 427 -22 c 1
 413 -52 l 1
 433 -55 489 -63 489 -122 c 0
 489 -151 470 -225 292 -225 c 0
 265 -225 231 -224 204 -220 c 1
 229 -163 l 1
EndSplineSet
EndChar

StartChar: D
Encoding: 68 68 11
Width: 722
Flags: HMW
HStem: 0 81<196 312 312 344> 637 81<314 445 314 314>
VStem: 664 100<294.5 513 276 529.5>
LayerCount: 2
Fore
SplineSet
196 81 m 1
 312 81 l 2
 508 81 664 163 664 426 c 0
 664 633 530 637 445 637 c 2
 314 637 l 1
 196 81 l 1
81 0 m 1
 233 718 l 1
 455 718 l 2
 645 718 764 600 764 426 c 0
 764 126 558 0 344 0 c 2
 81 0 l 1
EndSplineSet
EndChar

StartChar: E
Encoding: 69 69 12
Width: 667
Flags: HMW
HStem: 0 81<201 640> 331 82<274 662 256 679> 637 81<318 744 318 318>
LayerCount: 2
Fore
SplineSet
86 0 m 1
 238 718 l 1
 762 718 l 1
 744 637 l 1
 318 637 l 1
 274 413 l 1
 679 413 l 1
 662 331 l 1
 256 331 l 1
 201 81 l 1
 658 81 l 1
 640 0 l 1
 86 0 l 1
EndSplineSet
EndChar

StartChar: Eacute
Encoding: 263 201 13
Width: 667
Flags: HMW
HStem: 0 84<201 640> 340 83<271 658 253 676> 654 84<317 745 317 317> 909 20G<467 579 579 579>
LayerCount: 2
Fore
SplineSet
376 794 m 1
 467 929 l 1
 579 929 l 1
 449 794 l 1
 376 794 l 1
86 0 m 1
 238 738 l 1
 762 738 l 1
 745 654 l 1
 317 654 l 1
 271 423 l 1
 676 423 l 1
 658 340 l 1
 253 340 l 1
 201 84 l 1
 657 84 l 1
 640 0 l 1
 86 0 l 1
EndSplineSet
EndChar

StartChar: Ecircumflex
Encoding: 264 202 14
Width: 667
Flags: HMW
HStem: 0 84<201 640> 340 83<271 658 253 676> 654 84<317 745 317 317> 794 135<347 574 347 574 557 557 557 574 477 635>
LayerCount: 2
Fore
SplineSet
347 794 m 1
 477 929 l 1
 574 929 l 1
 635 794 l 1
 557 794 l 1
 518 881 l 1
 438 794 l 1
 347 794 l 1
86 0 m 1
 238 738 l 1
 762 738 l 1
 745 654 l 1
 317 654 l 1
 271 423 l 1
 676 423 l 1
 658 340 l 1
 253 340 l 1
 201 84 l 1
 657 84 l 1
 640 0 l 1
 86 0 l 1
EndSplineSet
EndChar

StartChar: Edieresis
Encoding: 265 203 15
Width: 667
Flags: HMW
HStem: 0 84<201 640> 340 83<271 658 253 676> 654 84<317 745 317 317> 801 100<333 446 354 425 354 513 534 605>
LayerCount: 2
Fore
SplineSet
333 801 m 1
 354 901 l 1
 446 901 l 1
 425 801 l 1
 333 801 l 1
513 801 m 1
 534 901 l 1
 626 901 l 1
 605 801 l 1
 513 801 l 1
86 0 m 1
 238 738 l 1
 762 738 l 1
 745 654 l 1
 317 654 l 1
 271 423 l 1
 676 423 l 1
 658 340 l 1
 253 340 l 1
 201 84 l 1
 657 84 l 1
 640 0 l 1
 86 0 l 1
EndSplineSet
EndChar

StartChar: Egrave
Encoding: 266 200 16
Width: 667
Flags: HMW
HStem: 0 84<201 640> 340 83<271 658 253 676> 654 84<317 745 317 317> 789 140<495 495 495 507 399 565>
LayerCount: 2
Fore
SplineSet
495 789 m 1
 399 929 l 1
 507 929 l 1
 565 789 l 1
 495 789 l 1
86 0 m 1
 238 738 l 1
 762 738 l 1
 745 654 l 1
 317 654 l 1
 271 423 l 1
 676 423 l 1
 658 340 l 1
 253 340 l 1
 201 84 l 1
 657 84 l 1
 640 0 l 1
 86 0 l 1
EndSplineSet
EndChar

StartChar: Eth
Encoding: 267 208 17
Width: 722
Flags: HMW
HStem: 0 81<192 309 309 341> 331 81<86 149 69 167 86 247 264 455> 637 81<314 442 314 314>
VStem: 664 100<293.5 513 275.5 528.5>
LayerCount: 2
Fore
SplineSet
192 81 m 1
 309 81 l 2
 505 81 664 162 664 425 c 0
 664 632 528 637 442 637 c 2
 314 637 l 1
 264 412 l 1
 473 412 l 1
 455 331 l 1
 247 331 l 1
 192 81 l 1
77 0 m 1
 149 331 l 1
 69 331 l 1
 86 412 l 1
 167 412 l 1
 233 718 l 1
 452 718 l 2
 645 718 764 601 764 425 c 0
 764 126 555 0 341 0 c 2
 77 0 l 1
EndSplineSet
EndChar

StartChar: Euro
Encoding: 268 8364 18
Width: 667
Flags: HMW
HStem: 0 77<312 389.5> 265 64<14 69 28 69 28 69 170 481> 391 64<28 76 14 93 200 510> 641 77<394.5 489.5>
VStem: 69 101<265 265 265 329>
LayerCount: 2
Fore
SplineSet
14 265 m 1
 28 329 l 1
 69 329 l 1
 70 349 72 371 76 391 c 1
 14 391 l 1
 28 455 l 1
 93 455 l 1
 146 607 282 718 460 718 c 0
 529 718 599 702 654 662 c 1
 611 581 l 1
 576 625 519 641 460 641 c 0
 329 641 245 562 200 455 c 1
 525 455 l 1
 510 391 l 1
 179 391 l 1
 174 371 173 349 170 329 c 1
 496 329 l 1
 481 265 l 1
 170 265 l 1
 178 156 249 77 375 77 c 0
 429 77 477 92 518 123 c 1
 494 22 l 1
 455 7 412 0 367 0 c 0
 184 0 81 101 69 265 c 1
 14 265 l 1
EndSplineSet
EndChar

StartChar: F
Encoding: 70 70 19
Width: 611
Flags: HMW
HStem: 0 21G<86 86 86 187> 325 82<277 648 259 666> 637 81<327 718 327 327>
LayerCount: 2
Fore
SplineSet
86 0 m 1
 243 718 l 1
 736 718 l 1
 718 637 l 1
 327 637 l 1
 277 407 l 1
 666 407 l 1
 648 325 l 1
 259 325 l 1
 187 0 l 1
 86 0 l 1
EndSplineSet
EndChar

StartChar: G
Encoding: 71 71 20
Width: 778
Flags: HMW
HStem: -19 81<350.5 459 350.5 477> 282 82<431 772 448 656> 656 81<421.5 557>
VStem: 111 100<234.5 389.5>
LayerCount: 2
Fore
SplineSet
431 282 m 1
 448 364 l 1
 772 364 l 1
 710 69 l 1
 648 30 538 -19 416 -19 c 0
 148 -19 111 184 111 285 c 0
 111 494 241 737 515 737 c 0
 649 737 789 656 799 510 c 1
 702 500 l 1
 679 612 602 656 512 656 c 0
 331 656 211 498 211 285 c 0
 211 171 286 62 415 62 c 0
 503 62 587 106 623 125 c 1
 656 282 l 1
 431 282 l 1
EndSplineSet
EndChar

StartChar: H
Encoding: 72 72 21
Width: 722
Flags: HMW
HStem: 0 21G<77 77 77 175 550 550 550 646> 337 81<261 620 245 637> 698 20G<230 325 325 325 701 799 799 799>
LayerCount: 2
Fore
SplineSet
77 0 m 1
 230 718 l 1
 325 718 l 1
 261 418 l 1
 637 418 l 1
 701 718 l 1
 799 718 l 1
 646 0 l 1
 550 0 l 1
 620 337 l 1
 245 337 l 1
 175 0 l 1
 77 0 l 1
EndSplineSet
EndChar

StartChar: I
Encoding: 73 73 22
Width: 278
Flags: HMW
HStem: 0 21G<91 91 91 187> 698 20G<246 341 341 341>
LayerCount: 2
Fore
SplineSet
91 0 m 1
 246 718 l 1
 341 718 l 1
 187 0 l 1
 91 0 l 1
EndSplineSet
EndChar

StartChar: Iacute
Encoding: 269 205 23
Width: 278
Flags: HMW
HStem: 0 21G<91 91 91 185> 715 20G<238 330 330 330> 909 20G<343 459 459 459>
LayerCount: 2
Fore
SplineSet
91 0 m 1
 238 735 l 1
 330 735 l 1
 185 0 l 1
 91 0 l 1
241 788 m 1
 343 929 l 1
 459 929 l 1
 316 788 l 1
 241 788 l 1
EndSplineSet
EndChar

StartChar: Icircumflex
Encoding: 270 206 24
Width: 278
Flags: HMW
HStem: 0 21G<91 91 91 185> 715 20G<238 330 330 330> 790 139<155 381 155 381 364 364 364 381 284 442>
LayerCount: 2
Fore
SplineSet
91 0 m 1
 238 735 l 1
 330 735 l 1
 185 0 l 1
 91 0 l 1
155 790 m 1
 284 929 l 1
 381 929 l 1
 442 790 l 1
 364 790 l 1
 325 879 l 1
 246 790 l 1
 155 790 l 1
EndSplineSet
EndChar

StartChar: Idieresis
Encoding: 271 207 25
Width: 278
Flags: HMW
HStem: 0 21G<91 91 91 185> 709 20G
LayerCount: 2
Fore
SplineSet
91 0 m 1
 238 735 l 1
 330 735 l 1
 185 0 l 1
 91 0 l 1
164 800 m 1
 185 901 l 1
 278 901 l 1
 256 800 l 1
 164 800 l 1
345 800 m 1
 366 901 l 1
 458 901 l 1
 437 800 l 1
 345 800 l 1
EndSplineSet
EndChar

StartChar: Igrave
Encoding: 272 204 26
Width: 278
Flags: HMW
HStem: 0 21G<91 91 91 185> 715 20G<238 330 330 330> 909 20G<192 296 296 296>
LayerCount: 2
Fore
SplineSet
284 788 m 1
 192 929 l 1
 296 929 l 1
 351 788 l 1
 284 788 l 1
91 0 m 1
 238 735 l 1
 330 735 l 1
 185 0 l 1
 91 0 l 1
EndSplineSet
EndChar

StartChar: J
Encoding: 74 74 27
Width: 500
Flags: HMW
HStem: -19 80<209 269.5 209 310.5> 698 20G<478 581 581 581>
VStem: 47 95<161.5 204>
LayerCount: 2
Fore
SplineSet
47 204 m 1
 142 211 l 1
 142 112 185 61 233 61 c 0
 306 61 348 123 362 189 c 2
 478 718 l 1
 581 718 l 1
 463 189 l 2
 440 87 389 -19 232 -19 c 0
 103 -19 47 52 47 204 c 1
EndSplineSet
EndChar

StartChar: K
Encoding: 75 75 28
Width: 667
Flags: HMW
HStem: 0 21G<76 76 76 177 602 602 602 714> 698 20G<234 335 335 335 667 808 808 808>
VStem: 651 141
LayerCount: 2
Fore
SplineSet
76 0 m 1
 234 718 l 1
 335 718 l 1
 255 369 l 1
 667 718 l 1
 808 718 l 1
 459 427 l 1
 714 0 l 1
 602 0 l 1
 385 365 l 1
 228 234 l 1
 177 0 l 1
 76 0 l 1
EndSplineSet
EndChar

StartChar: L
Encoding: 76 76 29
Width: 556
Flags: HMW
HStem: 0 81<189 538> 698 20G<226 322 322 322>
LayerCount: 2
Fore
SplineSet
76 0 m 1
 226 718 l 1
 322 718 l 1
 189 81 l 1
 555 81 l 1
 538 0 l 1
 76 0 l 1
EndSplineSet
EndChar

StartChar: Lslash
Encoding: 232 321 30
Width: 556
Flags: HMW
HStem: 0 81<184 538> 698 20G<221 317 317 317>
LayerCount: 2
Fore
SplineSet
70 0 m 1
 132 296 l 1
 41 244 l 1
 58 328 l 1
 149 378 l 1
 221 718 l 1
 317 718 l 1
 258 439 l 1
 450 545 l 1
 433 464 l 1
 241 356 l 1
 184 81 l 1
 555 81 l 1
 538 0 l 1
 70 0 l 1
EndSplineSet
EndChar

StartChar: M
Encoding: 77 77 31
Width: 833
Flags: HMW
HStem: 0 21G<73 73 73 167 375 375 375 468 668 668 668 763> 698 20G<225 343 343 343 794 914 914 914>
LayerCount: 2
Fore
SplineSet
73 0 m 1
 225 718 l 1
 343 718 l 1
 434 77 l 1
 794 718 l 1
 914 718 l 1
 763 0 l 1
 668 0 l 1
 816 613 l 1
 468 0 l 1
 375 0 l 1
 288 608 l 1
 167 0 l 1
 73 0 l 1
EndSplineSet
EndChar

StartChar: N
Encoding: 78 78 32
Width: 722
Flags: HMW
HStem: 0 21G<76 76 76 171 551 551 551 647> 698 20G<227 322 322 322 704 799 799 799>
VStem: 64 723
LayerCount: 2
Fore
SplineSet
76 0 m 1
 227 718 l 1
 322 718 l 1
 581 109 l 1
 704 718 l 1
 799 718 l 1
 647 0 l 1
 551 0 l 1
 290 608 l 1
 171 0 l 1
 76 0 l 1
EndSplineSet
EndChar

StartChar: Ntilde
Encoding: 273 209 33
Width: 722
Flags: HMW
HStem: 0 21G<76 76 76 171 551 551 551 647> 709 20G<228 323 323 323 704 799 799 799> 806 21G<361 361 361 424> 897 20G<428.5 478>
LayerCount: 2
Fore
SplineSet
361 806 m 1
 377 865 394 917 463 917 c 0
 493 917 521 906 546 895 c 0
 569 885 588 875 603 875 c 0
 628 875 634 900 638 914 c 1
 699 914 l 1
 694 860 660 805 601 805 c 0
 576 805 555 818 531 830 c 0
 512 839 491 847 465 847 c 0
 440 847 429 830 424 806 c 1
 361 806 l 1
76 0 m 1
 228 729 l 1
 323 729 l 1
 579 111 l 1
 581 111 l 1
 704 729 l 1
 799 729 l 1
 647 0 l 1
 551 0 l 1
 294 616 l 1
 292 616 l 1
 171 0 l 1
 76 0 l 1
EndSplineSet
EndChar

StartChar: O
Encoding: 79 79 34
Width: 778
Flags: HMW
HStem: -19 81<383 511.5 383 528> 656 81<440.5 552.5>
VStem: 132 100 685 100
LayerCount: 2
Fore
SplineSet
231 295 m 0
 231 143 333 62 433 62 c 0
 590 62 700 231 700 409 c 0
 700 565 603 656 502 656 c 0
 379 656 231 540 231 295 c 0
141 295 m 0
 141 566 309 737 502 737 c 0
 681 737 790 599 790 409 c 0
 790 173 630 -19 426 -19 c 0
 247 -19 141 123 141 295 c 0
EndSplineSet
EndChar

StartChar: OE
Encoding: 234 338 35
Width: 1000
Flags: HMW
HStem: -19 81<303.5 417.5> -7 69 -7 83<648 997> 327 83<721 1023 703 1041> 641 84<771 1098 771 771> 656 81<384.5 502.5 369 508.5>
VStem: 98 93<230.5 375 230.5 426.5>
LayerCount: 2
Fore
SplineSet
191 299 m 0
 191 162 232 62 375 62 c 0
 516 62 566 197 577 227 c 0
 600 286 631 444 631 494 c 0
 631 596 550 656 467 656 c 0
 302 656 191 451 191 299 c 0
530 -7 m 1
 542 45 l 1
 516 24 469 -19 366 -19 c 0
 220 -19 98 86 98 299 c 0
 98 554 264 737 474 737 c 0
 531 737 610 718 668 638 c 1
 687 725 l 1
 1116 725 l 1
 1098 641 l 1
 771 641 l 1
 721 410 l 1
 1041 410 l 1
 1023 327 l 1
 703 327 l 1
 648 76 l 1
 1015 76 l 1
 997 -7 l 1
 530 -7 l 1
EndSplineSet
EndChar

StartChar: Oacute
Encoding: 274 211 36
Width: 778
Flags: HMW
HStem: -19 82 788 21G<445 445 445 524> 909 20G<543 661 661 661>
VStem: 105 101 725 101
LayerCount: 2
Fore
SplineSet
205 296 m 0
 205 144 319 62 431 62 c 0
 605 62 726 232 726 411 c 0
 726 569 619 658 507 658 c 0
 370 658 205 543 205 296 c 0
105 301 m 0
 105 575 293 739 507 739 c 0
 707 739 826 603 826 411 c 0
 826 173 649 -19 423 -19 c 0
 224 -19 105 128 105 301 c 0
445 788 m 1
 543 929 l 1
 661 929 l 1
 524 788 l 1
 445 788 l 1
EndSplineSet
EndChar

StartChar: Ocircumflex
Encoding: 275 212 37
Width: 778
Flags: HMW
HStem: -19 82 879 50<554 554>
VStem: 105 101 510 103<929 929> 725 101
LayerCount: 2
Fore
SplineSet
205 296 m 0
 205 144 319 62 431 62 c 0
 605 62 726 232 726 411 c 0
 726 569 619 658 507 658 c 0
 370 658 205 543 205 296 c 0
105 301 m 0
 105 575 293 739 507 739 c 0
 707 739 826 603 826 411 c 0
 826 173 649 -19 423 -19 c 0
 224 -19 105 128 105 301 c 0
372 789 m 1
 510 929 l 1
 613 929 l 1
 677 789 l 1
 595 789 l 1
 554 879 l 1
 469 789 l 1
 372 789 l 1
EndSplineSet
EndChar

StartChar: Odieresis
Encoding: 276 214 38
Width: 778
Flags: HMW
HStem: -19 81<375 518 375 536> 798 103<380 499 402 477 402 570 592 667>
VStem: 105 100<220 419.5 220 438> 726 100<321.5 490>
LayerCount: 2
Fore
SplineSet
380 798 m 1
 402 901 l 1
 499 901 l 1
 477 798 l 1
 380 798 l 1
570 798 m 1
 592 901 l 1
 690 901 l 1
 667 798 l 1
 570 798 l 1
205 296 m 0
 205 144 319 62 431 62 c 0
 605 62 726 232 726 411 c 0
 726 569 619 658 507 658 c 0
 370 658 205 543 205 296 c 0
105 301 m 0
 105 575 293 739 507 739 c 0
 707 739 826 603 826 411 c 0
 826 173 649 -19 423 -19 c 0
 224 -19 105 128 105 301 c 0
EndSplineSet
EndChar

StartChar: Ograve
Encoding: 277 210 39
Width: 778
Flags: HMW
HStem: -19 82 666 82
VStem: 105 100<220 419.5 220 438> 726 100<321.5 490>
LayerCount: 2
Fore
SplineSet
205 296 m 0
 205 144 319 62 431 62 c 0
 605 62 726 232 726 411 c 0
 726 569 619 658 507 658 c 0
 370 658 205 543 205 296 c 0
105 301 m 0
 105 575 293 739 507 739 c 0
 707 739 826 603 826 411 c 0
 826 173 649 -19 423 -19 c 0
 224 -19 105 128 105 301 c 0
512 789 m 1
 412 929 l 1
 525 929 l 1
 585 789 l 1
 512 789 l 1
EndSplineSet
EndChar

StartChar: Oslash
Encoding: 233 216 40
Width: 778
Flags: HMW
HStem: -19 21G<74 74> 16 84<331.5 438.5 331.5 459.5> 619 84<347.5 441 307 454.5> 717 20G<704 704>
VStem: 48 85<289.5 396.5 289.5 411> 648 90<322 431>
LayerCount: 2
Fore
SplineSet
213 130 m 1
 250 103 307 100 356 100 c 0
 521 100 648 246 648 398 c 0
 648 464 623 518 604 547 c 1
 213 130 l 1
172 168 m 1
 564 586 l 1
 537 609 481 619 428 619 c 0
 267 619 133 480 133 313 c 0
 133 266 141 207 172 168 c 1
27 16 m 1
 111 107 l 1
 55 173 48 250 48 311 c 0
 48 511 187 703 427 703 c 0
 455 703 543 701 623 650 c 1
 704 737 l 1
 751 701 l 1
 667 613 l 1
 728 549 738 467 738 400 c 0
 738 191 573 16 346 16 c 0
 278 16 212 33 156 69 c 1
 74 -19 l 1
 27 16 l 1
EndSplineSet
EndChar

StartChar: Otilde
Encoding: 278 213 41
Width: 778
Flags: HMW
HStem: -19 81<375 518 375 536> 805 109 897 20G<425.5 475.5>
VStem: 105 100<220 419.5 220 438> 726 100<321.5 490>
LayerCount: 2
Fore
SplineSet
205 296 m 0
 205 144 319 62 431 62 c 0
 605 62 726 232 726 411 c 0
 726 569 619 658 507 658 c 0
 370 658 205 543 205 296 c 0
105 301 m 0
 105 575 293 739 507 739 c 0
 707 739 826 603 826 411 c 0
 826 173 649 -19 423 -19 c 0
 224 -19 105 128 105 301 c 0
357 805 m 1
 372 865 390 917 461 917 c 0
 490 917 518 907 542 897 c 0
 568 886 590 875 606 875 c 0
 633 875 639 900 643 914 c 1
 705 914 l 1
 700 859 665 804 604 804 c 0
 577 804 556 818 531 830 c 0
 512 839 491 847 463 847 c 0
 438 847 426 830 421 805 c 1
 357 805 l 1
EndSplineSet
EndChar

StartChar: P
Encoding: 80 80 42
Width: 667
Flags: HMW
HStem: 0 21G<86 86 86 182> 290 81<259 416 416 421 242 416> 639 79<314 498 314 314>
VStem: 642 95<470 588>
LayerCount: 2
Fore
SplineSet
259 371 m 1
 416 371 l 2
 510 371 642 402 642 538 c 0
 642 638 568 639 498 639 c 2
 314 639 l 1
 259 371 l 1
86 0 m 1
 235 718 l 1
 534 718 l 2
 649 718 737 673 737 538 c 0
 737 366 579 290 421 290 c 2
 242 290 l 1
 182 0 l 1
 86 0 l 1
EndSplineSet
EndChar

StartChar: Q
Encoding: 81 81 43
Width: 778
Flags: HMW
HStem: -56 21G<681 681> 12 77<404 435.5 392 457.5> 660 77<426.5 548>
VStem: 136 101 725 101
LayerCount: 2
Fore
SplineSet
425 168 m 1
 458 227 l 1
 512 203 543 169 564 149 c 2
 572 140 l 1
 656 206 699 321 699 422 c 0
 699 582 593 660 503 660 c 0
 350 660 232 512 232 322 c 0
 232 137 364 89 420 89 c 0
 451 89 482 94 512 105 c 1
 478 136 458 151 425 168 c 1
569 44 m 1
 525 22 479 12 436 12 c 0
 372 12 141 29 141 322 c 0
 141 526 275 737 500 737 c 0
 681 737 790 604 790 422 c 0
 790 279 728 156 628 79 c 1
 662 37 707 10 721 0 c 1
 681 -56 l 1
 643 -31 606 0 569 44 c 1
EndSplineSet
EndChar

StartChar: R
Encoding: 82 82 44
Width: 722
Flags: HMW
HStem: 0 21G<88 88 88 184 608 608 608 715> 318 77<267 360 250 398> 639 79<317 537 317 317>
VStem: 681 92<467.5 588>
LayerCount: 2
Fore
SplineSet
267 395 m 1
 398 395 l 2
 531 395 681 394 681 541 c 0
 681 635 588 639 537 639 c 2
 317 639 l 1
 267 395 l 1
88 0 m 1
 238 718 l 1
 537 718 l 2
 628 718 773 716 773 541 c 0
 773 354 580 329 529 322 c 1
 591 276 630 205 660 133 c 2
 715 0 l 1
 608 0 l 1
 556 133 l 2
 520 226 484 318 360 318 c 2
 250 318 l 1
 184 0 l 1
 88 0 l 1
EndSplineSet
EndChar

StartChar: S
Encoding: 83 83 45
Width: 667
Flags: HMW
HStem: -19 80<300 437.5 291 461.5> 657 80<411.5 478>
VStem: 90 96<195 230> 181 95<509.5 587.5 509.5 602> 559 99<156.5 221.5> 617 96<516 555>
LayerCount: 2
Fore
SplineSet
90 230 m 1
 186 238 l 1
 186 152 205 61 377 61 c 0
 498 61 559 124 559 189 c 0
 559 254 503 281 397 327 c 0
 289 374 181 419 181 541 c 0
 181 663 289 737 439 737 c 0
 647 737 713 601 713 516 c 1
 617 509 l 1
 617 601 521 657 435 657 c 0
 388 657 276 634 276 541 c 0
 276 478 324 460 432 413 c 0
 573 352 658 308 658 189 c 0
 658 72 549 -19 374 -19 c 0
 226 -19 90 50 90 230 c 1
EndSplineSet
EndChar

StartChar: Scaron
Encoding: 279 352 46
Width: 667
Flags: HMW
HStem: -19 82<309 440.5 309 464.5> 668 82<413.5 481> 789 140<407 407 407 425 343 507>
VStem: 90 97<143 243> 182 96<519.5 599.5 519.5 614> 563 100<159.5 225.5>
LayerCount: 2
Fore
SplineSet
407 789 m 1
 343 929 l 1
 425 929 l 1
 465 839 l 1
 548 929 l 1
 642 929 l 1
 507 789 l 1
 407 789 l 1
90 235 m 1
 187 243 l 1
 190 148 239 63 379 63 c 0
 502 63 563 127 563 192 c 0
 563 259 506 288 399 333 c 0
 291 381 182 427 182 552 c 0
 182 676 291 750 442 750 c 0
 652 750 713 623 713 527 c 1
 616 519 l 1
 616 627 524 668 438 668 c 0
 389 668 278 647 278 552 c 0
 278 487 326 470 435 422 c 0
 577 358 663 315 663 192 c 0
 663 72 553 -19 376 -19 c 0
 227 -19 90 51 90 235 c 1
EndSplineSet
EndChar

StartChar: T
Encoding: 84 84 47
Width: 611
Flags: HMW
HStem: 0 21G<256 256 256 355> 637 81<166 393 148 750 491 491 491 732>
LayerCount: 2
Fore
SplineSet
256 0 m 1
 393 637 l 1
 148 637 l 1
 166 718 l 1
 750 718 l 1
 732 637 l 1
 491 637 l 1
 355 0 l 1
 256 0 l 1
EndSplineSet
EndChar

StartChar: Thorn
Encoding: 280 222 48
Width: 667
Flags: HMW
HStem: 0 21G<86 86 86 182> 146 81<230 387 387 392 213 387> 495 79<301 470 285 506> 698 20G<236 332 332 332>
VStem: 617 95<316.5 435.5>
LayerCount: 2
Fore
SplineSet
230 227 m 1
 387 227 l 2
 482 227 617 248 617 385 c 0
 617 486 540 495 470 495 c 2
 285 495 l 1
 230 227 l 1
86 0 m 1
 236 718 l 1
 332 718 l 1
 301 574 l 1
 506 574 l 2
 621 574 712 521 712 385 c 0
 712 212 551 146 392 146 c 2
 213 146 l 1
 182 0 l 1
 86 0 l 1
EndSplineSet
EndChar

StartChar: U
Encoding: 85 85 49
Width: 722
Flags: HMW
HStem: -19 82<341 459 341 513.5> 698 20G<227 325 325 325 699 797 797 797>
VStem: 123 97<150 193 150 212>
LayerCount: 2
Fore
SplineSet
227 718 m 1
 325 718 l 1
 220 193 l 1
 220 107 300 63 382 63 c 0
 536 63 583 170 608 294 c 2
 699 718 l 1
 797 718 l 1
 706 294 l 2
 688 211 640 -19 387 -19 c 0
 240 -19 123 51 123 193 c 0
 123 231 231 718 227 718 c 1
EndSplineSet
EndChar

StartChar: Uacute
Encoding: 281 218 50
Width: 722
Flags: HMW
HStem: -19 84<342.5 452 342.5 515> 714 20G<228 325 325 325 699 797 797 797> 787 21G<437 437 437 511> 909 20G<529 644 644 644>
VStem: 123 97<154 198 154 217.5>
LayerCount: 2
Fore
SplineSet
228 734 m 1
 325 734 l 1
 220 198 l 1
 220 110 302 65 383 65 c 0
 521 65 588 183 610 302 c 2
 699 734 l 1
 797 734 l 1
 706 302 l 2
 689 216 641 -19 389 -19 c 0
 241 -19 123 53 123 198 c 0
 123 237 228 734 228 734 c 1
437 787 m 1
 529 929 l 1
 644 929 l 1
 511 787 l 1
 437 787 l 1
EndSplineSet
EndChar

StartChar: Ucircumflex
Encoding: 282 219 51
Width: 722
Flags: HMW
HStem: -19 84<343 453 343 515.5> 715 20G<228 325 325 325 699 797 797 797>
VStem: 123 97<154 198 154 217.5>
LayerCount: 2
Fore
SplineSet
228 735 m 1
 325 735 l 1
 220 198 l 1
 220 110 302 65 384 65 c 0
 522 65 588 183 611 302 c 2
 699 735 l 1
 797 735 l 1
 707 302 l 2
 690 217 642 -19 389 -19 c 0
 242 -19 123 53 123 198 c 0
 123 237 228 735 228 735 c 1
366 788 m 1
 499 929 l 1
 599 929 l 1
 661 788 l 1
 581 788 l 1
 541 878 l 1
 459 788 l 1
 366 788 l 1
EndSplineSet
EndChar

StartChar: Udieresis
Encoding: 283 220 52
Width: 722
Flags: HMW
HStem: -19 83 707 20G 881 20G<404 498 498 498 588 682 682 682>
VStem: 123 97<154 198 154 217.5>
LayerCount: 2
Fore
SplineSet
228 735 m 1
 325 735 l 1
 220 198 l 1
 220 110 302 65 384 65 c 0
 522 65 588 183 611 302 c 2
 699 735 l 1
 797 735 l 1
 707 302 l 2
 690 217 642 -19 389 -19 c 0
 242 -19 123 53 123 198 c 0
 123 237 228 735 228 735 c 1
382 798 m 1
 404 901 l 1
 498 901 l 1
 476 798 l 1
 382 798 l 1
567 798 m 1
 588 901 l 1
 682 901 l 1
 661 798 l 1
 567 798 l 1
EndSplineSet
EndChar

StartChar: Ugrave
Encoding: 284 217 53
Width: 722
Flags: HMW
HStem: -19 84<341 451.5 341 514> 716 20G<227 324 324 324 699 797 797 797> 789 140<510 510 510 522 412 581>
VStem: 123 96<154 198 154 217.5>
LayerCount: 2
Fore
SplineSet
510 789 m 1
 412 929 l 1
 522 929 l 1
 581 789 l 1
 510 789 l 1
227 736 m 1
 324 736 l 1
 219 198 l 1
 219 110 300 65 382 65 c 0
 521 65 588 183 611 302 c 2
 699 736 l 1
 797 736 l 1
 707 302 l 2
 689 217 641 -19 387 -19 c 0
 240 -19 123 53 123 198 c 0
 123 237 227 736 227 736 c 1
EndSplineSet
EndChar

StartChar: V
Encoding: 86 86 54
Width: 667
Flags: HMW
HStem: 0 21G<312 312 312 414> 698 20G<173 265 265 265 701 800 800 800>
LayerCount: 2
Fore
SplineSet
312 0 m 1
 173 718 l 1
 265 718 l 1
 380 101 l 1
 701 718 l 1
 800 718 l 1
 414 0 l 1
 312 0 l 1
EndSplineSet
EndChar

StartChar: W
Encoding: 87 87 55
Width: 944
Flags: HMW
HStem: 0 21G<212 212 212 309 626 626 626 727> 698 20G<169 264 264 264 580 677 677 677 986 1081 1081 1081>
VStem: 190 84 612 78 986 95<718 718>
LayerCount: 2
Fore
SplineSet
212 0 m 1
 169 718 l 1
 264 718 l 1
 285 134 l 1
 287 132 l 1
 580 718 l 1
 677 718 l 1
 704 125 l 1
 706 125 l 1
 986 718 l 1
 1081 718 l 1
 727 0 l 1
 626 0 l 1
 598 572 l 1
 596 572 l 1
 309 0 l 1
 212 0 l 1
EndSplineSet
EndChar

StartChar: X
Encoding: 88 88 56
Width: 667
Flags: HMW
HStem: 0 21G<19 19 19 141 546 546 546 646> 698 20G<153 254 254 254 670 790 790 790>
LayerCount: 2
Fore
SplineSet
19 0 m 1
 348 362 l 1
 153 718 l 1
 254 718 l 1
 410 422 l 1
 670 718 l 1
 790 718 l 1
 457 346 l 1
 646 0 l 1
 546 0 l 1
 395 288 l 1
 141 0 l 1
 19 0 l 1
EndSplineSet
EndChar

StartChar: Y
Encoding: 89 89 57
Width: 667
Flags: HMW
HStem: 0 21G<326 326 326 419> 698 20G<167 267 267 267 695 806 806 806>
VStem: 167 100<718 718> 695 111<718 718>
LayerCount: 2
Fore
SplineSet
326 0 m 1
 382 277 l 1
 167 718 l 1
 267 718 l 1
 436 361 l 1
 695 718 l 1
 806 718 l 1
 474 269 l 1
 419 0 l 1
 326 0 l 1
EndSplineSet
EndChar

StartChar: Yacute
Encoding: 285 221 58
Width: 667
Flags: HMW
HStem: 0 21G<326 326 326 418> 909 20G<508 617 617 617>
LayerCount: 2
Fore
SplineSet
419 790 m 1
 508 929 l 1
 617 929 l 1
 490 790 l 1
 419 790 l 1
326 0 m 1
 381 286 l 1
 167 737 l 1
 267 737 l 1
 436 373 l 1
 695 737 l 1
 806 737 l 1
 474 278 l 1
 418 0 l 1
 326 0 l 1
EndSplineSet
EndChar

StartChar: Ydieresis
Encoding: 286 376 59
Width: 667
Flags: HMW
HStem: 0 21G<326 326 326 418> 709 20G<167 267 267 267 695 806 806 806> 799 102<368 478 388 457 388 543 563 633>
LayerCount: 2
Fore
SplineSet
368 799 m 1
 388 901 l 1
 478 901 l 1
 457 799 l 1
 368 799 l 1
543 799 m 1
 563 901 l 1
 653 901 l 1
 633 799 l 1
 543 799 l 1
326 0 m 1
 381 274 l 1
 167 729 l 1
 267 729 l 1
 436 368 l 1
 695 729 l 1
 806 729 l 1
 474 274 l 1
 418 0 l 1
 326 0 l 1
EndSplineSet
EndChar

StartChar: Z
Encoding: 90 90 60
Width: 611
Flags: HMW
HStem: 0 81<144 615> 637 81<141 741>
LayerCount: 2
Fore
SplineSet
-7 0 m 1
 4 72 l 1
 598 638 l 1
 141 637 l 1
 161 718 l 1
 741 718 l 1
 732 643 l 1
 144 81 l 1
 635 81 l 1
 615 0 l 1
 -7 0 l 1
EndSplineSet
EndChar

StartChar: Zcaron
Encoding: 287 381 61
Width: 611
Flags: HMW
HStem: 0 84<144 605> 790 139<404 404 404 424 333 518>
LayerCount: 2
Fore
SplineSet
404 790 m 1
 333 929 l 1
 424 929 l 1
 470 839 l 1
 564 929 l 1
 671 929 l 1
 518 790 l 1
 404 790 l 1
-7 0 m 1
 4 74 l 1
 592 654 l 1
 141 655 l 1
 161 739 l 1
 741 739 l 1
 732 662 l 1
 144 84 l 1
 625 84 l 1
 605 0 l 1
 -7 0 l 1
EndSplineSet
EndChar

StartChar: a
Encoding: 97 97 62
Width: 556
Flags: HMW
HStem: -15 70<215.5 273.5> -3 21G<424 424 424 517> 244 66<306 306> 464 74<322.5 379>
VStem: 61 92<118.5 180.5 118.5 219>
LayerCount: 2
Fore
SplineSet
447 266 m 1
 413 253 388 251 306 244 c 0
 246 238 153 223 153 138 c 0
 153 99 176 55 255 55 c 0
 311 55 367 83 401 132 c 0
 427 169 438 213 447 266 c 1
424 -3 m 1
 416 23 414 52 413 64 c 1
 383 38 320 -15 227 -15 c 0
 136 -15 61 40 61 138 c 0
 61 300 244 308 306 310 c 0
 384 313 423 315 461 329 c 1
 494 448 406 464 352 464 c 0
 293 464 234 445 206 368 c 1
 112 376 l 1
 136 495 281 538 356 538 c 0
 501 538 559 468 559 376 c 0
 559 353 557 328 551 303 c 2
 520 172 l 2
 513 138 507 104 507 69 c 0
 507 45 511 25 517 -3 c 1
 424 -3 l 1
EndSplineSet
EndChar

StartChar: aacute
Encoding: 288 225 63
Width: 556
Flags: HMW
HStem: -15 70<213.5 271> -3 21G<419 419 419 510> 246 67<302 302> 714 20G<414 535 535 535>
VStem: 61 95 489 98
LayerCount: 2
Fore
SplineSet
441 269 m 1
 407 255 384 253 302 246 c 0
 243 241 151 230 151 144 c 0
 151 105 175 55 252 55 c 0
 307 55 362 84 396 134 c 0
 422 171 432 215 441 269 c 1
419 -3 m 1
 410 23 408 53 407 64 c 1
 379 39 317 -15 225 -15 c 0
 136 -15 61 41 61 140 c 0
 61 303 241 311 302 313 c 0
 380 316 418 318 454 333 c 1
 462 356 466 384 466 395 c 0
 466 466 376 470 351 470 c 0
 293 470 228 449 201 372 c 1
 115 380 l 1
 139 500 264 544 355 544 c 0
 465 544 559 483 559 395 c 0
 559 389 555 363 543 306 c 2
 513 174 l 2
 506 140 500 105 500 70 c 0
 500 45 504 25 510 -3 c 1
 419 -3 l 1
315 597 m 1
 414 734 l 1
 535 734 l 1
 394 597 l 1
 315 597 l 1
EndSplineSet
EndChar

StartChar: acircumflex
Encoding: 289 226 64
Width: 556
Flags: HMW
HStem: -15 70<213.5 271> -3 21G<419 419 419 510> 246 67<302 302> 597 137<231 464 231 464 446 446 446 464 364 526>
LayerCount: 2
Fore
SplineSet
441 269 m 1
 407 255 384 253 302 246 c 0
 243 241 151 230 151 144 c 0
 151 105 175 55 252 55 c 0
 307 55 362 84 396 134 c 0
 422 171 432 215 441 269 c 1
419 -3 m 1
 410 23 408 53 407 64 c 1
 379 39 317 -15 225 -15 c 0
 136 -15 61 41 61 140 c 0
 61 303 241 311 302 313 c 0
 380 316 418 318 454 333 c 1
 462 356 466 384 466 395 c 0
 466 466 376 470 351 470 c 0
 293 470 228 449 201 372 c 1
 115 380 l 1
 139 500 264 544 355 544 c 0
 465 544 559 483 559 395 c 0
 559 389 555 363 543 306 c 2
 513 174 l 2
 506 140 500 105 500 70 c 0
 500 45 504 25 510 -3 c 1
 419 -3 l 1
231 597 m 1
 364 734 l 1
 464 734 l 1
 526 597 l 1
 446 597 l 1
 406 684 l 1
 324 597 l 1
 231 597 l 1
EndSplineSet
EndChar

StartChar: acute
Encoding: 194 180 65
Width: 333
Flags: HMW
HStem: 593 21G<248 248 248 330> 714 20G<350 475 475 475>
LayerCount: 2
Fore
SplineSet
248 593 m 1
 350 734 l 1
 475 734 l 1
 330 593 l 1
 248 593 l 1
EndSplineSet
EndChar

StartChar: adieresis
Encoding: 290 228 66
Width: 556
Flags: HMW
HStem: -15 69 -3 21G<419 419 419 510> 243 66 607 99<247 363 269 342 269 432 453 526>
VStem: 61 90<124.5 187 124.5 221.5> 466 93<392 430.5>
LayerCount: 2
Fore
SplineSet
441 269 m 1
 407 255 384 253 302 246 c 0
 243 241 151 230 151 144 c 0
 151 105 175 55 252 55 c 0
 307 55 362 84 396 134 c 0
 422 171 432 215 441 269 c 1
419 -3 m 1
 410 23 408 53 407 64 c 1
 379 39 317 -15 225 -15 c 0
 136 -15 61 41 61 140 c 0
 61 303 241 311 302 313 c 0
 380 316 418 318 454 333 c 1
 462 356 466 384 466 395 c 0
 466 466 376 470 351 470 c 0
 293 470 228 449 201 372 c 1
 115 380 l 1
 139 500 264 544 355 544 c 0
 465 544 559 483 559 395 c 0
 559 389 555 363 543 306 c 2
 513 174 l 2
 506 140 500 105 500 70 c 0
 500 45 504 25 510 -3 c 1
 419 -3 l 1
247 607 m 1
 269 706 l 1
 363 706 l 1
 342 607 l 1
 247 607 l 1
432 607 m 1
 453 706 l 1
 548 706 l 1
 526 607 l 1
 432 607 l 1
EndSplineSet
EndChar

StartChar: ae
Encoding: 241 230 67
Width: 889
Flags: HMW
HStem: -15 70<215.5 283.5> 239 68<530 823 530 902 513 823> 468 69<667 734.5> 518 20G<302 411>
VStem: 61 91<118.5 165>
LayerCount: 2
Fore
SplineSet
530 307 m 1
 823 307 l 1
 842 425 765 468 704 468 c 0
 618 468 557 404 530 307 c 1
425 258 m 1
 396 252 372 246 295 239 c 0
 233 233 152 222 152 139 c 0
 152 98 179 55 252 55 c 0
 380 55 416 203 425 258 c 1
435 102 m 1
 390 42 337 -15 230 -15 c 0
 100 -15 61 72 61 139 c 0
 61 191 83 261 175 289 c 0
 226 304 348 306 439 327 c 1
 477 410 431 468 355 468 c 0
 243 468 215 396 203 369 c 1
 114 376 l 1
 152 491 247 538 357 538 c 0
 465 538 509 485 524 465 c 1
 570 512 634 537 700 537 c 0
 840 537 909 433 909 318 c 0
 909 288 904 254 902 239 c 1
 513 239 l 1
 499 125 558 59 629 59 c 0
 681 59 744 88 788 176 c 1
 880 168 l 1
 857 120 792 -15 627 -15 c 0
 552 -15 464 31 435 102 c 1
EndSplineSet
EndChar

StartChar: agrave
Encoding: 291 224 68
Width: 556
Flags: HMW
HStem: -15 70<213.5 271> -3 21G<419 419 419 510> 246 67<302 302> 597 137<376 376 376 388 278 446>
VStem: 61 90<124.5 187 124.5 221.5> 466 93<392 430.5>
LayerCount: 2
Fore
SplineSet
376 597 m 1
 278 734 l 1
 388 734 l 1
 446 597 l 1
 376 597 l 1
441 269 m 1
 407 255 384 253 302 246 c 0
 243 241 151 230 151 144 c 0
 151 105 175 55 252 55 c 0
 307 55 362 84 396 134 c 0
 422 171 432 215 441 269 c 1
419 -3 m 1
 410 23 408 53 407 64 c 1
 379 39 317 -15 225 -15 c 0
 136 -15 61 41 61 140 c 0
 61 303 241 311 302 313 c 0
 380 316 418 318 454 333 c 1
 462 356 466 384 466 395 c 0
 466 466 376 470 351 470 c 0
 293 470 228 449 201 372 c 1
 115 380 l 1
 139 500 264 544 355 544 c 0
 465 544 559 483 559 395 c 0
 559 389 555 363 543 306 c 2
 513 174 l 2
 506 140 500 105 500 70 c 0
 500 45 504 25 510 -3 c 1
 419 -3 l 1
EndSplineSet
EndChar

StartChar: ampersand
Encoding: 38 38 69
Width: 667
Flags: HMW
HStem: -15 21G<575 575> -13 78<262.5 318.5 262.5 340.5> 648 70<380 424>
VStem: 77 87<146 230 146 257> 228 88<543 570 543 585.5> 472 89<548.5 599.5>
LayerCount: 2
Fore
SplineSet
349 455 m 1
 378 469 472 516 472 581 c 0
 472 618 443 648 405 648 c 0
 355 648 316 593 316 547 c 0
 316 539 319 512 349 455 c 1
442 137 m 1
 404 187 339 277 301 348 c 1
 250 324 164 276 164 184 c 0
 164 108 228 65 297 65 c 0
 340 65 390 83 442 137 c 1
266 416 m 1
 260 430 l 2
 244 466 228 496 228 547 c 0
 228 624 292 718 406 718 c 0
 510 718 561 646 561 583 c 0
 561 487 463 431 382 389 c 1
 397 362 450 267 502 202 c 1
 518 220 539 241 572 299 c 1
 647 264 l 1
 622 212 586 164 559 133 c 1
 587 96 618 63 641 37 c 1
 575 -15 l 1
 558 -1 522 31 492 71 c 1
 440 28 388 -13 293 -13 c 0
 165 -13 77 69 77 184 c 0
 77 330 198 387 266 416 c 1
EndSplineSet
EndChar

StartChar: aring
Encoding: 292 229 70
Width: 556
Flags: HMW
HStem: -15 69 -3 21G<419 419 419 510> 241 65 577 38<369.5 398.5 369.5 408.5> 719 37<369 398.5>
VStem: 61 90<124.5 187 124.5 221.5> 293 37<651.5 680.5 651.5 692.5> 437 38<651.5 681>
LayerCount: 2
Fore
SplineSet
441 269 m 1
 407 255 384 253 302 246 c 0
 243 241 151 230 151 144 c 0
 151 105 175 55 252 55 c 0
 307 55 362 84 396 134 c 0
 422 171 432 215 441 269 c 1
419 -3 m 1
 410 23 408 53 407 64 c 1
 379 39 317 -15 225 -15 c 0
 136 -15 61 41 61 140 c 0
 61 303 241 311 302 313 c 0
 380 316 418 318 454 333 c 1
 462 356 466 384 466 395 c 0
 466 466 376 470 351 470 c 0
 293 470 228 449 201 372 c 1
 115 380 l 1
 139 500 264 544 355 544 c 0
 465 544 559 483 559 395 c 0
 559 389 555 363 543 306 c 2
 513 174 l 2
 506 140 500 105 500 70 c 0
 500 45 504 25 510 -3 c 1
 419 -3 l 1
330 666 m 0
 330 637 355 615 384 615 c 0
 413 615 437 637 437 666 c 0
 437 696 413 719 384 719 c 0
 354 719 330 695 330 666 c 0
293 667 m 0
 293 718 334 756 384 756 c 0
 434 756 475 718 475 667 c 0
 475 617 433 577 384 577 c 0
 335 577 293 617 293 667 c 0
EndSplineSet
EndChar

StartChar: asciicircum
Encoding: 94 94 71
Width: 469
Flags: HMW
HStem: 264 21G<42 42 42 139 443 443 443 539> 668 20G<248 332 332 332>
LayerCount: 2
Fore
SplineSet
42 264 m 1
 248 688 l 1
 332 688 l 1
 539 264 l 1
 443 264 l 1
 289 590 l 1
 139 264 l 1
 42 264 l 1
EndSplineSet
EndChar

StartChar: asciitilde
Encoding: 126 126 72
Width: 584
Flags: HMW
HStem: 180 21G<111 111> 181 84<439.5 484.5> 240 85<218.5 252.5> 306 20G<580 580>
LayerCount: 2
Fore
SplineSet
111 180 m 1
 111 271 l 1
 148 312 199 325 238 325 c 0
 275 325 308 313 340 300 c 0
 380 283 418 265 461 265 c 0
 521 265 571 317 580 326 c 1
 580 232 l 1
 553 207 516 181 453 181 c 0
 412 181 377 200 337 217 c 0
 307 229 274 240 231 240 c 0
 176 240 140 207 111 180 c 1
EndSplineSet
EndChar

StartChar: asterisk
Encoding: 42 42 73
Width: 389
Flags: HMW
HStem: 431 21G<258 258 383 383> 698 20G<353 353>
VStem: 290 58
LayerCount: 2
Fore
SplineSet
258 431 m 1
 202 470 l 1
 280 558 l 1
 165 582 l 1
 186 648 l 1
 295 604 l 1
 285 717 l 1
 353 718 l 1
 343 605 l 1
 453 649 l 1
 475 583 l 1
 358 558 l 1
 439 471 l 1
 383 431 l 1
 319 530 l 1
 258 431 l 1
EndSplineSet
EndChar

StartChar: at
Encoding: 64 64 74
Width: 1116
Flags: HMW
HStem: -42 64<577 770 577 815> -42 194<523 1061> 142 65<554 590.5> 548 63<583.5 639 567 656> 707 64
VStem: 237 63<241 431> 403 80<289 370 289 398> 974 64<376 532.5>
LayerCount: 2
Fore
SplineSet
483 331 m 0
 483 247 531 207 577 207 c 0
 652 207 734 308 734 422 c 0
 734 516 680 548 632 548 c 0
 535 548 483 409 483 331 c 0
693 214 m 1
 672 190 621 142 560 142 c 0
 466 142 403 230 403 331 c 0
 403 465 507 611 627 611 c 0
 651 611 714 606 759 532 c 1
 774 599 l 1
 851 599 l 1
 789 309 l 2
 780 268 771 205 807 213 c 1
 853 213 974 301 974 451 c 0
 974 614 834 726 664 726 c 0
 447 726 300 553 300 346 c 0
 300 107 476 22 678 22 c 0
 862 22 953 108 983 152 c 1
 1061 152 l 1
 1049 127 954 -42 676 -42 c 0
 370 -42 237 136 237 346 c 0
 237 516 338 790 669 790 c 0
 912 790 1038 619 1038 451 c 0
 1038 285 904 142 778 142 c 0
 701 142 696 187 693 214 c 1
EndSplineSet
EndChar

StartChar: atilde
Encoding: 293 227 75
Width: 556
Flags: HMW
HStem: -15 69 -3 21G<419 419 419 510> 242 66 409 74 702 20G<305.5 360>
VStem: 61 95 489 99
LayerCount: 2
Fore
SplineSet
441 269 m 1
 407 255 384 253 302 246 c 0
 243 241 151 230 151 144 c 0
 151 105 175 55 252 55 c 0
 307 55 362 84 396 134 c 0
 422 171 432 215 441 269 c 1
419 -3 m 1
 410 23 408 53 407 64 c 1
 379 39 317 -15 225 -15 c 0
 136 -15 61 41 61 140 c 0
 61 303 241 311 302 313 c 0
 380 316 418 318 454 333 c 1
 462 356 466 384 466 395 c 0
 466 466 376 470 351 470 c 0
 293 470 228 449 201 372 c 1
 115 380 l 1
 139 500 264 544 355 544 c 0
 465 544 559 483 559 395 c 0
 559 389 555 363 543 306 c 2
 513 174 l 2
 506 140 500 105 500 70 c 0
 500 45 504 25 510 -3 c 1
 419 -3 l 1
234 611 m 1
 251 670 269 722 342 722 c 0
 378 722 407 711 432 700 c 0
 455 690 475 680 490 680 c 0
 517 680 524 705 528 719 c 1
 592 719 l 1
 587 665 551 610 488 610 c 0
 469 610 445 622 418 634 c 0
 395 644 370 653 344 653 c 0
 318 653 306 636 300 611 c 1
 234 611 l 1
EndSplineSet
EndChar

StartChar: b
Encoding: 98 98 76
Width: 556
Flags: HMW
HStem: -15 72<295.5 380.5 295.5 383.5> -3 21G<58 58 58 140> 458 73<375.5 425.5 375.5 426.5> 698 20G<215 307 307 307>
VStem: 492 92<279.5 338>
LayerCount: 2
Fore
SplineSet
195 212 m 0
 195 70 279 57 312 57 c 0
 449 57 492 243 492 316 c 0
 492 360 474 458 379 458 c 0
 261 458 195 294 195 212 c 0
58 -3 m 1
 215 718 l 1
 307 718 l 1
 252 462 l 1
 298 502 344 531 407 531 c 0
 444 531 584 514 584 316 c 0
 584 118 447 -15 320 -15 c 0
 248 -15 181 31 162 96 c 1
 160 96 l 1
 140 -3 l 1
 58 -3 l 1
EndSplineSet
EndChar

StartChar: backslash
Encoding: 92 92 77
Width: 278
Flags: HMW
HStem: -19 21G<252 252 252 342> 717 20G<140 230 230 230>
VStem: 140 202
LayerCount: 2
Fore
SplineSet
252 -19 m 1
 140 737 l 1
 230 737 l 1
 342 -19 l 1
 252 -19 l 1
EndSplineSet
EndChar

StartChar: bar
Encoding: 124 124 78
Width: 260
Flags: HMW
HStem: -229 21G<74 74 74 150> 717 20G<222 298 298 298>
VStem: 74 224
LayerCount: 2
Fore
SplineSet
74 -229 m 1
 222 737 l 1
 298 737 l 1
 150 -229 l 1
 74 -229 l 1
EndSplineSet
EndChar

StartChar: braceleft
Encoding: 123 123 79
Width: 334
Flags: HMW
HStem: -196 74<273 311> 224 78<103 140> 647 74<393 434>
VStem: 92 353
LayerCount: 2
Fore
SplineSet
92 224 m 1
 103 302 l 1
 200 302 218 411 234 507 c 0
 258 651 283 721 445 721 c 1
 434 647 l 1
 352 647 328 595 315 507 c 0
 291 331 286 311 179 263 c 1
 258 229 264 153 248 39 c 0
 224 -113 224 -122 322 -122 c 1
 311 -196 l 1
 143 -196 145 -107 166 39 c 0
 179 134 188 224 92 224 c 1
EndSplineSet
EndChar

StartChar: braceright
Encoding: 125 125 80
Width: 334
Flags: HMW
HStem: -196 74<11 50 11 72> 224 78<307 342> 673 74
VStem: 0 354
LayerCount: 2
Fore
SplineSet
11 -122 m 1
 89 -122 115 -81 128 7 c 0
 154 183 159 215 267 263 c 1
 189 298 182 365 199 479 c 0
 222 633 224 648 125 648 c 1
 136 722 l 1
 300 722 302 627 280 479 c 0
 266 384 260 302 354 302 c 1
 342 224 l 1
 248 224 225 102 210 7 c 0
 190 -120 144 -196 0 -196 c 1
 11 -122 l 1
EndSplineSet
EndChar

StartChar: bracketleft
Encoding: 91 91 81
Width: 278
Flags: HMW
HStem: -196 68<123 216> 654 68<282 389 282 282>
VStem: 21 382
LayerCount: 2
Fore
SplineSet
123 -128 m 1
 231 -128 l 1
 216 -196 l 1
 21 -196 l 1
 206 722 l 1
 403 722 l 1
 389 654 l 1
 282 654 l 1
 123 -128 l 1
EndSplineSet
EndChar

StartChar: bracketright
Encoding: 93 93 82
Width: 278
Flags: HMW
HStem: -196 68<0 105 0 180 -14 105> 654 68<176 267 161 368>
VStem: -14 382
LayerCount: 2
Fore
SplineSet
0 -128 m 1
 105 -128 l 1
 267 654 l 1
 161 654 l 1
 176 722 l 1
 368 722 l 1
 180 -196 l 1
 -14 -196 l 1
 0 -128 l 1
EndSplineSet
EndChar

StartChar: breve
Encoding: 198 728 83
Width: 333
Flags: HMW
HStem: 595 63<281 343 281 361>
VStem: 167 61<731 731>
LayerCount: 2
Fore
SplineSet
167 731 m 1
 228 731 l 1
 234 688 253 658 309 658 c 0
 377 658 405 707 415 731 c 1
 476 731 l 1
 462 682 416 595 306 595 c 0
 216 595 170 658 167 731 c 1
EndSplineSet
EndChar

StartChar: brokenbar
Encoding: 294 166 84
Width: 260
Flags: HMW
HStem: -19 21G<90 90 90 167> 717 20G<247 324 324 324>
LayerCount: 2
Fore
SplineSet
90 -19 m 1
 154 290 l 1
 231 290 l 1
 167 -19 l 1
 90 -19 l 1
183 427 m 1
 247 737 l 1
 324 737 l 1
 260 427 l 1
 183 427 l 1
EndSplineSet
EndChar

StartChar: bullet
Encoding: 183 8226 85
Width: 350
Flags: HMW
HStem: 202 21G<207.5 296> 497 20G<207.5 296>
LayerCount: 2
Fore
SplineSet
91 361 m 0
 91 447 163 517 252 517 c 0
 340 517 413 447 413 361 c 0
 413 274 340 202 252 202 c 0
 163 202 91 274 91 361 c 0
EndSplineSet
EndChar

StartChar: c
Encoding: 99 99 86
Width: 500
Flags: HMW
HStem: -15 70<262.5 317.5 262.5 326> 360 178 464 74<271 365.5>
VStem: 74 95<131 220 131 261> 461 92<363 407.5>
LayerCount: 2
Fore
SplineSet
426 190 m 1
 519 181 l 1
 471 44 378 -15 274 -15 c 0
 166 -15 74 48 74 194 c 0
 74 328 144 538 361 538 c 0
 441 538 553 500 553 363 c 1
 461 358 l 1
 461 457 379 464 352 464 c 0
 190 464 169 246 169 194 c 0
 169 68 250 55 275 55 c 0
 360 55 407 135 426 190 c 1
EndSplineSet
EndChar

StartChar: caron
Encoding: 207 711 87
Width: 333
Flags: HMW
HStem: 593 141<239 239 239 256 177 337>
LayerCount: 2
Fore
SplineSet
239 593 m 1
 177 734 l 1
 256 734 l 1
 295 644 l 1
 376 734 l 1
 468 734 l 1
 337 593 l 1
 239 593 l 1
EndSplineSet
EndChar

StartChar: ccedilla
Encoding: 295 231 88
Width: 500
Flags: HMW
HStem: -225 21G<184.5 213.5> -29 70<292 317.5 255 346.5> 355 183 463 75<275.5 366.5>
VStem: 74 95<134 227.5 134 260> 280 82<-149.5 -115 -168 -108.5 -168 -58> 461 91<358 396>
LayerCount: 2
Fore
SplineSet
207 -94 m 1
 234 -27 l 1
 199 -30 74 11 74 187 c 0
 74 333 149 538 361 538 c 0
 441 538 552 498 552 358 c 1
 461 352 l 1
 461 440 380 463 353 463 c 0
 198 463 169 268 169 187 c 0
 169 81 235 41 275 41 c 0
 360 41 408 125 427 181 c 1
 519 171 l 1
 479 57 401 -29 292 -29 c 1
 280 -58 l 1
 354 -58 362 -106 362 -124 c 0
 362 -212 233 -225 194 -225 c 0
 175 -225 153 -224 134 -223 c 1
 153 -167 l 1
 201 -167 280 -173 280 -126 c 0
 280 -91 235 -94 207 -94 c 1
EndSplineSet
EndChar

StartChar: cedilla
Encoding: 203 184 89
Width: 333
Flags: HMW
HStem: -225 21G<66.5 92> -20 20G<99 161 161 161>
VStem: 154 78<-147 -123.5 -174.5 -115>
LayerCount: 2
Fore
SplineSet
99 0 m 1
 161 0 l 1
 151 -46 l 1
 229 -59 232 -118 232 -129 c 0
 232 -220 106 -225 78 -225 c 0
 55 -225 25 -224 2 -220 c 1
 11 -160 l 1
 27 -161 39 -163 76 -163 c 0
 90 -163 154 -165 154 -129 c 0
 154 -101 125 -83 80 -83 c 1
 99 0 l 1
EndSplineSet
EndChar

StartChar: cent
Encoding: 162 162 90
Width: 556
Flags: HMW
HStem: 34 54<295.5 343.5 295.5 350.5> 412 58
LayerCount: 2
Fore
SplineSet
225 114 m 1
 389 408 l 1
 200 408 170 240 170 196 c 0
 170 142 207 124 225 114 c 1
107 -97 m 1
 192 54 l 1
 110 89 95 150 95 196 c 0
 95 300 167 466 388 466 c 0
 405 466 414 465 422 464 c 1
 509 623 l 1
 565 605 l 1
 481 453 l 1
 570 425 584 349 584 329 c 1
 512 325 l 1
 511 344 492 379 451 401 c 1
 279 91 l 1
 283 90 291 88 300 88 c 0
 387 88 456 152 475 194 c 1
 550 187 l 1
 500 78 402 34 299 34 c 0
 274 34 258 36 249 38 c 1
 164 -115 l 1
 107 -97 l 1
EndSplineSet
EndChar

StartChar: circumflex
Encoding: 195 710 91
Width: 333
Flags: HMW
HStem: 593 90<147 320 320 359 320 438> 593 141<147 376 147 376 359 359 359 376 278 438>
LayerCount: 2
Fore
SplineSet
147 593 m 1
 278 734 l 1
 376 734 l 1
 438 593 l 1
 359 593 l 1
 320 683 l 1
 239 593 l 1
 147 593 l 1
EndSplineSet
EndChar

StartChar: colon
Encoding: 58 58 92
Width: 278
Flags: HMW
HStem: 0 96<87 213 109 191> 420 96<175 301 197 279>
VStem: 87 214
LayerCount: 2
Fore
SplineSet
87 0 m 1
 109 96 l 1
 213 96 l 1
 191 0 l 1
 87 0 l 1
175 420 m 1
 197 516 l 1
 301 516 l 1
 279 420 l 1
 175 420 l 1
EndSplineSet
EndChar

StartChar: comma
Encoding: 44 44 93
Width: 278
Flags: HMW
HStem: -147 21G<56 56> 86 20G<109 214 214 214>
LayerCount: 2
Fore
SplineSet
87 3 m 1
 109 106 l 1
 214 106 l 1
 195 16 l 2
 188 -20 163 -133 56 -147 c 1
 64 -105 l 1
 81 -101 125 -91 144 3 c 1
 87 3 l 1
EndSplineSet
EndChar

StartChar: copyright
Encoding: 296 169 94
Width: 737
Flags: HMW
HStem: -19 62<358 538.5 358 556.5> 142 59<397.5 447 397.5 467> 515 55<420 479> 675 62<358 538.5>
VStem: 54 65<269 443 269 461> 772 65<269 443>
LayerCount: 2
Fore
SplineSet
119 356 m 0
 119 182 268 43 448 43 c 0
 629 43 772 182 772 356 c 0
 772 530 629 675 448 675 c 0
 268 675 119 530 119 356 c 0
54 356 m 0
 54 566 234 737 448 737 c 0
 663 737 837 565 837 356 c 0
 837 148 665 -19 448 -19 c 0
 231 -19 54 147 54 356 c 0
567 298 m 1
 629 279 l 1
 595 185 508 142 426 142 c 0
 306 142 228 220 244 356 c 0
 260 486 346 570 477 570 c 0
 558 570 627 534 643 452 c 1
 579 438 l 1
 557 514 488 515 470 515 c 0
 370 515 324 431 315 356 c 0
 302 249 362 201 433 201 c 0
 461 201 535 211 567 298 c 1
EndSplineSet
EndChar

StartChar: currency
Encoding: 168 164 95
Width: 556
Flags: HMW
HStem: 99 21G<99 99 468 468> 134 84<280.5 309.5> 484 84<393.5 423> 583 20G<237 237 606 606>
LayerCount: 2
Fore
SplineSet
225 350 m 0
 205 277 246 218 315 218 c 0
 386 218 459 277 479 350 c 0
 500 424 458 484 388 484 c 0
 318 484 246 425 225 350 c 0
99 99 m 1
 60 160 l 1
 147 229 l 1
 130 279 138 324 145 350 c 0
 152 378 170 423 213 471 c 1
 165 542 l 1
 237 603 l 1
 285 531 l 1
 330 558 375 568 412 568 c 0
 449 568 489 558 518 531 c 1
 606 603 l 1
 646 542 l 1
 558 471 l 1
 575 423 566 378 559 350 c 0
 552 324 535 279 492 229 c 1
 541 160 l 1
 468 99 l 1
 420 171 l 1
 376 144 328 134 291 134 c 0
 254 134 217 144 187 171 c 1
 99 99 l 1
EndSplineSet
EndChar

StartChar: d
Encoding: 100 100 96
Width: 556
Flags: HMW
HStem: -15 72<233 297.5> -3 60 458 73<283 375 278 375.5> 698 20G<560 652 652 652>
VStem: 84 92<197.5 241.5 197.5 304>
LayerCount: 2
Fore
SplineSet
176 213 m 0
 176 182 176 57 290 57 c 0
 390 57 471 187 471 325 c 0
 471 422 403 458 348 458 c 0
 218 458 176 270 176 213 c 0
412 -3 m 1
 428 71 l 1
 385 24 332 -15 263 -15 c 0
 188 -15 84 45 84 213 c 0
 84 395 208 531 348 531 c 0
 402 531 460 511 499 437 c 1
 501 437 l 1
 560 718 l 1
 652 718 l 1
 497 -3 l 1
 412 -3 l 1
EndSplineSet
EndChar

StartChar: dagger
Encoding: 178 8224 97
Width: 556
Flags: HMW
HStem: -159 21G<205 205 205 292> 435 74<150 328 135 343 150 415 431 607> 698 20G<386 474 474 474>
VStem: 135 487<435 509>
LayerCount: 2
Fore
SplineSet
205 -159 m 1
 328 435 l 1
 135 435 l 1
 150 509 l 1
 343 509 l 1
 386 718 l 1
 474 718 l 1
 431 509 l 1
 622 509 l 1
 607 435 l 1
 415 435 l 1
 292 -159 l 1
 205 -159 l 1
EndSplineSet
EndChar

StartChar: daggerdbl
Encoding: 179 8225 98
Width: 556
Flags: HMW
HStem: -159 21G<206 292 206 206> 29 74<52 258 68 243 68 329 344 517> 457 77<156 331 140 346 156 418 433 605> 698 20G<384 470 470 470>
LayerCount: 2
Fore
SplineSet
52 29 m 1
 68 103 l 1
 258 103 l 1
 331 457 l 1
 140 457 l 1
 156 534 l 1
 346 534 l 1
 384 718 l 1
 470 718 l 1
 433 534 l 1
 623 534 l 1
 605 457 l 1
 418 457 l 1
 344 103 l 1
 533 103 l 1
 517 29 l 1
 329 29 l 1
 292 -159 l 1
 206 -159 l 1
 243 29 l 1
 52 29 l 1
EndSplineSet
EndChar

StartChar: degree
Encoding: 297 176 99
Width: 400
Flags: HMW
HStem: 411 55<291.5 343 291.5 359> 650 53<291 343.5>
VStem: 169 54<534 585.5 534 600> 412 56<534 585.5>
LayerCount: 2
Fore
SplineSet
223 560 m 0
 223 508 266 466 317 466 c 0
 369 466 412 508 412 560 c 0
 412 611 370 650 317 650 c 0
 265 650 223 611 223 560 c 0
169 559 m 0
 169 641 235 703 318 703 c 0
 402 703 468 640 468 559 c 0
 468 476 400 411 318 411 c 0
 237 411 169 476 169 559 c 0
EndSplineSet
EndChar

StartChar: dieresis
Encoding: 200 168 100
Width: 333
Flags: HMW
HStem: 604 102<189 189 189 254 254 254 357 422 422 422>
LayerCount: 2
Fore
SplineSet
189 706 m 1
 168 604 l 1
 254 604 l 1
 275 706 l 1
 189 706 l 1
357 706 m 1
 336 604 l 1
 422 604 l 1
 443 706 l 1
 357 706 l 1
EndSplineSet
EndChar

StartChar: divide
Encoding: 298 247 101
Width: 584
Flags: HMW
HStem: -19 97<196 343 242 298> 210 82<85 606 124 567> 426 98<356 503 401 457>
LayerCount: 2
Fore
SplineSet
196 -19 m 1
 242 78 l 1
 343 78 l 1
 298 -19 l 1
 196 -19 l 1
356 426 m 1
 401 524 l 1
 503 524 l 1
 457 426 l 1
 356 426 l 1
85 210 m 1
 124 292 l 1
 606 292 l 1
 567 210 l 1
 85 210 l 1
EndSplineSet
EndChar

StartChar: dollar
Encoding: 36 36 102
Width: 556
Flags: HMW
HStem: -115 21G<225 277 225 225> -10 21G<193 248> 663 73<360 393> 755 20G<418 468 468 468>
VStem: 134 91 528 83
LayerCount: 2
Fore
SplineSet
314 54 m 1
 412 54 477 122 477 193 c 0
 477 270 416 299 369 319 c 1
 314 54 l 1
342 424 m 1
 393 663 l 1
 327 663 249 618 249 539 c 0
 249 465 301 443 342 424 c 1
248 -10 m 1
 138 -10 75 104 69 206 c 1
 162 211 l 1
 170 106 226 63 264 63 c 1
 323 340 l 1
 271 361 158 412 158 539 c 0
 158 620 215 736 408 736 c 1
 418 775 l 1
 468 775 l 1
 458 728 l 1
 556 728 617 589 617 550 c 1
 534 544 l 1
 530 572 501 655 442 655 c 1
 388 405 l 1
 447 381 569 319 569 193 c 0
 569 103 500 -16 298 -16 c 1
 277 -115 l 1
 225 -115 l 1
 248 -10 l 1
EndSplineSet
EndChar

StartChar: dotaccent
Encoding: 199 729 103
Width: 333
Flags: HMW
HStem: 604 102<249 362 269 341>
LayerCount: 2
Fore
SplineSet
249 604 m 1
 269 706 l 1
 362 706 l 1
 341 604 l 1
 249 604 l 1
EndSplineSet
EndChar

StartChar: dotlessi
Encoding: 245 305 104
Width: 278
Flags: HMW
HStem: 0 21G<95 95 95 184> 503 20G<204 294 294 294>
VStem: 95 199
LayerCount: 2
Fore
SplineSet
95 0 m 1
 204 523 l 1
 294 523 l 1
 184 0 l 1
 95 0 l 1
EndSplineSet
EndChar

StartChar: e
Encoding: 101 101 105
Width: 556
Flags: HMW
HStem: -15 74<257 312.5 257 362.5> 240 69<176 491 190 491 190 571> 468 70<316.5 405>
VStem: 84 92<240 240 240 277.5> 491 87<309 309>
LayerCount: 2
Fore
SplineSet
190 309 m 1
 491 309 l 1
 500 405 441 468 369 468 c 0
 264 468 211 376 190 309 c 1
176 240 m 1
 161 133 221 59 293 59 c 0
 332 59 414 80 456 177 c 1
 545 168 l 1
 523 95 432 -15 293 -15 c 0
 177 -15 84 63 84 210 c 0
 84 345 169 538 367 538 c 0
 531 538 578 411 578 320 c 0
 578 280 574 260 571 240 c 1
 176 240 l 1
EndSplineSet
EndChar

StartChar: eacute
Encoding: 299 233 106
Width: 556
Flags: HMW
HStem: -15 74<261.5 313 261.5 363> -15 188 241 70<177 491 191 491 191 571> 714 20G<419 537 537 537>
VStem: 84 92
LayerCount: 2
Fore
SplineSet
191 311 m 1
 491 311 l 1
 507 409 441 473 370 473 c 0
 264 473 212 379 191 311 c 1
177 241 m 1
 176 231 175 224 175 213 c 0
 175 110 230 59 293 59 c 0
 333 59 414 80 456 178 c 1
 545 169 l 1
 523 95 433 -15 293 -15 c 0
 178 -15 84 62 84 211 c 0
 84 347 170 543 368 543 c 0
 532 543 578 414 578 322 c 0
 578 282 574 261 571 241 c 1
 177 241 l 1
323 595 m 1
 419 734 l 1
 537 734 l 1
 400 595 l 1
 323 595 l 1
EndSplineSet
EndChar

StartChar: ecircumflex
Encoding: 300 234 107
Width: 556
Flags: HMW
HStem: -15 74<261.5 313 261.5 363> 241 70<177 491 191 491 191 571> 595 139<248 482 248 482 465 465 465 482 382 545>
VStem: 84 91<161.5 218.5 161.5 279> 491 87<311 311>
LayerCount: 2
Fore
SplineSet
191 311 m 1
 491 311 l 1
 507 409 441 473 370 473 c 0
 264 473 212 379 191 311 c 1
177 241 m 1
 176 231 175 224 175 213 c 0
 175 110 230 59 293 59 c 0
 333 59 414 80 456 178 c 1
 545 169 l 1
 523 95 433 -15 293 -15 c 0
 178 -15 84 62 84 211 c 0
 84 347 170 543 368 543 c 0
 532 543 578 414 578 322 c 0
 578 282 574 261 571 241 c 1
 177 241 l 1
248 595 m 1
 382 734 l 1
 482 734 l 1
 545 595 l 1
 465 595 l 1
 424 685 l 1
 342 595 l 1
 248 595 l 1
EndSplineSet
EndChar

StartChar: edieresis
Encoding: 301 235 108
Width: 556
Flags: HMW
HStem: -15 73 238 68 605 101<264 381 286 359 286 450 472 545>
VStem: 84 91<161.5 218.5 161.5 279>
LayerCount: 2
Fore
SplineSet
191 311 m 1
 491 311 l 1
 507 409 441 473 370 473 c 0
 264 473 212 379 191 311 c 1
177 241 m 1
 176 231 175 224 175 213 c 0
 175 110 230 59 293 59 c 0
 333 59 414 80 456 178 c 1
 545 169 l 1
 523 95 433 -15 293 -15 c 0
 178 -15 84 62 84 211 c 0
 84 347 170 543 368 543 c 0
 532 543 578 414 578 322 c 0
 578 282 574 261 571 241 c 1
 177 241 l 1
264 605 m 1
 286 706 l 1
 381 706 l 1
 359 605 l 1
 264 605 l 1
450 605 m 1
 472 706 l 1
 567 706 l 1
 545 605 l 1
 450 605 l 1
EndSplineSet
EndChar

StartChar: egrave
Encoding: 302 232 109
Width: 556
Flags: HMW
HStem: -15 74<261.5 313 261.5 363> 241 70<177 491 191 491 191 571> 596 138<393 393 393 406 295 465>
VStem: 84 91<161.5 218.5 161.5 279>
LayerCount: 2
Fore
SplineSet
393 596 m 1
 295 734 l 1
 406 734 l 1
 465 596 l 1
 393 596 l 1
191 311 m 1
 491 311 l 1
 507 409 441 473 370 473 c 0
 264 473 212 379 191 311 c 1
177 241 m 1
 176 231 175 224 175 213 c 0
 175 110 230 59 293 59 c 0
 333 59 414 80 456 178 c 1
 545 169 l 1
 523 95 433 -15 293 -15 c 0
 178 -15 84 62 84 211 c 0
 84 347 170 543 368 543 c 0
 532 543 578 414 578 322 c 0
 578 282 574 261 571 241 c 1
 177 241 l 1
EndSplineSet
EndChar

StartChar: eight
Encoding: 56 56 110
Width: 556
Flags: HMW
HStem: -19 69<267 361.5 267 383> 345 64<332 381> 634 69<337.5 425.5>
VStem: 74 96<131.5 179.5> 516 91<501.5 558.5>
LayerCount: 2
Fore
SplineSet
247 509 m 0
 247 446 296 409 368 409 c 0
 472 409 516 474 516 529 c 0
 516 588 462 634 389 634 c 0
 286 634 247 564 247 509 c 0
170 164 m 0
 170 99 226 50 308 50 c 0
 415 50 475 147 475 222 c 0
 475 291 417 345 345 345 c 0
 238 345 170 256 170 164 c 0
239 385 m 1
 155 427 153 490 153 509 c 0
 153 584 224 703 389 703 c 0
 560 703 607 592 607 529 c 0
 607 457 546 392 477 375 c 1
 509 357 571 316 571 222 c 0
 571 100 468 -19 298 -19 c 0
 159 -19 74 60 74 164 c 0
 74 195 82 345 239 385 c 1
EndSplineSet
EndChar

StartChar: ellipsis
Encoding: 188 8230 111
Width: 1000
Flags: HMW
HStem: 0 106<115 236 136 215 472 551 808 887>
LayerCount: 2
Fore
SplineSet
115 0 m 1
 136 106 l 1
 236 106 l 1
 215 0 l 1
 115 0 l 1
787 0 m 1
 808 106 l 1
 908 106 l 1
 887 0 l 1
 787 0 l 1
451 0 m 1
 472 106 l 1
 572 106 l 1
 551 0 l 1
 451 0 l 1
EndSplineSet
EndChar

StartChar: emdash
Encoding: 208 8212 112
Width: 1000
Flags: HMW
HStem: 240 73<51 1067 51 1067>
LayerCount: 2
Fore
SplineSet
51 240 m 1
 51 313 l 1
 1067 313 l 1
 1067 240 l 1
 51 240 l 1
EndSplineSet
EndChar

StartChar: endash
Encoding: 177 8211 113
Width: 556
Flags: HMW
HStem: 240 73<51 623 51 623>
LayerCount: 2
Fore
SplineSet
51 240 m 1
 51 313 l 1
 623 313 l 1
 623 240 l 1
 51 240 l 1
EndSplineSet
EndChar

StartChar: equal
Encoding: 61 61 114
Width: 584
Flags: HMW
HStem: 115 81 312 78
VStem: 42 565
LayerCount: 2
Fore
SplineSet
63 115 m 1
 63 194 l 1
 628 194 l 1
 628 115 l 1
 63 115 l 1
63 314 m 1
 63 390 l 1
 628 390 l 1
 628 314 l 1
 63 314 l 1
EndSplineSet
EndChar

StartChar: eth
Encoding: 303 240 115
Width: 556
Flags: HMW
HStem: -10 74
VStem: 506 101
LayerCount: 2
Fore
SplineSet
178 204 m 0
 178 143 201 59 312 59 c 0
 456 59 516 230 516 317 c 0
 516 423 444 458 380 458 c 0
 234 458 178 299 178 204 c 0
348 573 m 1
 324 623 l 1
 423 666 l 1
 389 707 384 713 358 737 c 1
 457 737 l 1
 474 723 493 704 496 699 c 1
 589 737 l 1
 613 687 l 1
 531 652 l 1
 561 606 617 517 617 353 c 0
 617 237 558 -15 310 -15 c 0
 152 -15 81 89 81 204 c 0
 81 383 208 532 358 532 c 0
 443 532 485 497 510 474 c 1
 512 476 l 1
 503 526 482 574 456 619 c 1
 348 573 l 1
EndSplineSet
EndChar

StartChar: exclam
Encoding: 33 33 116
Width: 278
Flags: HMW
HStem: 0 100<90 211 111 190> 165 20G<148 148 148 203> 698 20G<233 340 340 340>
LayerCount: 2
Fore
SplineSet
148 185 m 1
 202 553 l 1
 233 718 l 1
 340 718 l 1
 307 553 l 1
 203 185 l 1
 148 185 l 1
90 0 m 1
 111 100 l 1
 211 100 l 1
 190 0 l 1
 90 0 l 1
EndSplineSet
EndChar

StartChar: exclamdown
Encoding: 161 161 117
Width: 333
Flags: HMW
HStem: -195 21G<77 184 77 77> 324 20G<215 270 270 270> 425 98<205 326 226 305>
VStem: 77 249
LayerCount: 2
Fore
SplineSet
110 -33 m 1
 215 344 l 1
 270 344 l 1
 216 -33 l 1
 184 -195 l 1
 77 -195 l 1
 110 -33 l 1
205 425 m 1
 226 523 l 1
 326 523 l 1
 305 425 l 1
 205 425 l 1
EndSplineSet
EndChar

StartChar: f
Encoding: 102 102 118
Width: 278
Flags: HMW
HStem: 0 21G<86 86 86 166> 450 68<112 171 100 184 112 251 264 341> 649 79<311 341.5 275 346>
VStem: 106 330
LayerCount: 2
Fore
SplineSet
86 0 m 1
 171 450 l 1
 100 450 l 1
 112 518 l 1
 184 518 l 1
 196 574 l 2
 213 643 224 728 326 728 c 0
 357 728 398 718 416 714 c 1
 402 637 l 1
 389 640 360 649 332 649 c 0
 290 649 284 619 264 518 c 1
 354 518 l 1
 341 450 l 1
 251 450 l 1
 166 0 l 1
 86 0 l 1
EndSplineSet
EndChar

StartChar: fi
Encoding: 174 64257 119
Width: 500
Flags: HMW
HStem: 0 21G<86 86 86 176 344 434 344 344> 450 68<116 182 101 196 286 373> 649 79<335.5 374.5>
LayerCount: 2
Fore
SplineSet
475 612 m 1
 497 716 l 1
 587 716 l 1
 565 612 l 1
 475 612 l 1
344 0 m 1
 455 518 l 1
 545 518 l 1
 434 0 l 1
 344 0 l 1
86 0 m 1
 182 450 l 1
 101 450 l 1
 116 518 l 1
 196 518 l 1
 209 574 l 2
 228 643 245 728 359 728 c 0
 394 728 435 718 455 714 c 1
 439 637 l 1
 425 640 390 649 359 649 c 0
 312 649 308 619 286 518 c 1
 387 518 l 1
 373 450 l 1
 272 450 l 1
 176 0 l 1
 86 0 l 1
EndSplineSet
EndChar

StartChar: five
Encoding: 53 53 120
Width: 556
Flags: HMW
HStem: -19 69<271.5 354.5 271.5 380.5> 397 78<349 401> 628 80
VStem: 68 99 458 96
LayerCount: 2
Fore
SplineSet
67 195 m 1
 167 204 l 1
 159 95 242 50 301 50 c 0
 408 50 495 161 495 265 c 0
 495 334 447 397 355 397 c 0
 271 397 222 342 206 323 c 1
 122 330 l 1
 239 692 l 1
 621 692 l 1
 602 612 l 1
 305 612 l 1
 246 433 l 1
 270 446 312 475 386 475 c 0
 473 475 591 417 591 265 c 0
 591 102 467 -19 294 -19 c 0
 140 -19 67 91 67 195 c 1
EndSplineSet
EndChar

StartChar: fl
Encoding: 175 64258 121
Width: 500
Flags: HMW
HStem: 0 21G<86 86 86 175 343 433 343 343> 450 68<115 182 101 196 285 372> 649 79<335.5 374.5>
LayerCount: 2
Fore
SplineSet
343 0 m 1
 496 716 l 1
 585 716 l 1
 433 0 l 1
 343 0 l 1
86 0 m 1
 182 450 l 1
 101 450 l 1
 115 518 l 1
 196 518 l 1
 209 575 l 2
 227 644 246 728 359 728 c 0
 394 728 434 718 454 714 c 1
 438 637 l 1
 423 640 390 649 359 649 c 0
 312 649 308 619 285 518 c 1
 386 518 l 1
 372 450 l 1
 271 450 l 1
 175 0 l 1
 86 0 l 1
EndSplineSet
EndChar

StartChar: florin
Encoding: 166 402 122
Width: 556
Flags: HMW
HStem: -207 78<50.5 74.5 45 94> 453 70<254 327 228 354 254 417 444 518> 654 83<524 558.5>
LayerCount: 2
Fore
SplineSet
-20 -118 m 1
 16 -126 37 -129 53 -129 c 0
 96 -129 131 -75 147 -36 c 2
 327 453 l 1
 228 453 l 1
 254 523 l 1
 354 523 l 1
 402 637 438 737 552 737 c 0
 591 737 621 728 654 718 c 1
 621 641 l 1
 586 650 569 654 548 654 c 0
 500 654 487 627 444 523 c 1
 546 523 l 1
 518 453 l 1
 417 453 l 1
 232 -37 l 2
 197 -126 134 -207 54 -207 c 0
 47 -207 8 -207 -52 -195 c 1
 -20 -118 l 1
EndSplineSet
EndChar

StartChar: four
Encoding: 52 52 123
Width: 556
Flags: HMW
HStem: 0 21G<339 435 339 339> 180 78<178 380 495 586> 558 154
LayerCount: 2
Fore
SplineSet
178 258 m 1
 399 258 l 1
 466 549 l 1
 464 551 l 1
 178 258 l 1
64 180 m 1
 85 266 l 1
 519 703 l 1
 597 703 l 1
 495 258 l 1
 605 258 l 1
 586 180 l 1
 477 180 l 1
 435 0 l 1
 339 0 l 1
 380 180 l 1
 64 180 l 1
EndSplineSet
EndChar

StartChar: fraction
Encoding: 164 8260 124
Width: 167
Flags: HMW
HStem: -19 21G<-170 -104 -170 -170> 683 20G<410 482 482 482>
VStem: -167 652
LayerCount: 2
Fore
SplineSet
-104 -19 m 1
 -170 -19 l 1
 410 703 l 1
 482 703 l 1
 -104 -19 l 1
EndSplineSet
EndChar

StartChar: g
Encoding: 103 103 125
Width: 556
Flags: HMW
HStem: -220 74<230.5 299.5 196 354.5> -7 74<241 289> 464 74<286.5 369.5 272 387> 506 20G<526 610 610 610>
LayerCount: 2
Fore
SplineSet
170 233 m 0
 170 158 196 67 286 67 c 0
 412 67 476 222 476 322 c 0
 476 400 426 464 348 464 c 0
 225 464 170 304 170 233 c 0
42 -55 m 1
 135 -64 l 1
 135 -100 145 -146 247 -146 c 0
 352 -146 394 -83 411 10 c 2
 420 63 l 1
 362 6 310 -7 268 -7 c 0
 163 -7 76 82 76 233 c 0
 76 392 198 538 346 538 c 0
 393 538 461 523 508 438 c 1
 510 438 l 1
 526 526 l 1
 610 526 l 1
 501 10 l 2
 485 -65 452 -220 257 -220 c 0
 204 -220 42 -211 42 -55 c 1
EndSplineSet
EndChar

StartChar: germandbls
Encoding: 251 223 126
Width: 611
Flags: HMW
HStem: -15 72<418.5 473 410.5 500> -3 21G<67 67 67 166> 660 68<402.5 498.5>
VStem: 548 100
LayerCount: 2
Fore
SplineSet
67 -3 m 1
 180 493 l 2
 210 619 290 728 459 728 c 0
 637 728 649 576 565 479 c 0
 525 433 502 407 502 384 c 0
 502 361 520 338 564 297 c 0
 629 236 658 210 658 156 c 0
 658 64 558 -15 442 -15 c 0
 395 -15 319 -4 250 100 c 1
 333 141 l 1
 348 114 380 57 441 57 c 0
 505 57 558 110 558 156 c 0
 558 184 541 202 488 249 c 0
 429 299 401 334 401 371 c 0
 401 409 433 450 489 514 c 0
 531 563 541 660 456 660 c 0
 349 660 301 583 280 493 c 2
 166 -3 l 1
 67 -3 l 1
EndSplineSet
EndChar

StartChar: grave
Encoding: 193 96 127
Width: 333
Flags: HMW
HStem: 593 141<267 267 267 279 170 337>
LayerCount: 2
Fore
SplineSet
267 593 m 1
 170 734 l 1
 279 734 l 1
 337 593 l 1
 267 593 l 1
EndSplineSet
EndChar

StartChar: greater
Encoding: 62 62 128
Width: 584
Flags: HMW
HStem: 28 21G 468 20G
VStem: 130 477
LayerCount: 2
Fore
SplineSet
120 11 m 1
 120 98 l 1
 484 253 l 1
 120 408 l 1
 120 495 l 1
 597 294 l 1
 597 211 l 1
 120 11 l 1
EndSplineSet
EndChar

StartChar: guillemotleft
Encoding: 171 171 129
Width: 556
Flags: HMW
HStem: 131 21G<236 236 236 296 408 408 408 467> 520 20G<318 382 382 382 489 554 554 554>
LayerCount: 2
Fore
SplineSet
236 131 m 1
 146 339 l 1
 318 540 l 1
 382 540 l 1
 226 339 l 1
 296 131 l 1
 236 131 l 1
408 131 m 1
 318 339 l 1
 489 540 l 1
 554 540 l 1
 397 339 l 1
 467 131 l 1
 408 131 l 1
EndSplineSet
EndChar

StartChar: guillemotright
Encoding: 187 187 130
Width: 556
Flags: HMW
HStem: 131 21G<120 120 120 185 292 356 292 292> 520 20G<208 266 266 266 379 438 438 438>
LayerCount: 2
Fore
SplineSet
292 131 m 1
 448 332 l 1
 379 540 l 1
 438 540 l 1
 528 332 l 1
 356 131 l 1
 292 131 l 1
120 131 m 1
 277 332 l 1
 208 540 l 1
 266 540 l 1
 356 332 l 1
 185 131 l 1
 120 131 l 1
EndSplineSet
EndChar

StartChar: guilsinglleft
Encoding: 172 8249 131
Width: 350
Flags: HMW
HStem: 131 21G<225 225 225 278> 520 20G<299 357 357 357>
LayerCount: 2
Fore
SplineSet
225 131 m 1
 144 335 l 1
 299 540 l 1
 357 540 l 1
 215 335 l 1
 278 131 l 1
 225 131 l 1
EndSplineSet
EndChar

StartChar: guilsinglright
Encoding: 173 8250 132
Width: 333
Flags: HMW
HStem: 130 21G<117 117 117 175> 515 20G<196 248 248 248>
LayerCount: 2
Fore
SplineSet
117 130 m 1
 257 323 l 1
 196 535 l 1
 248 535 l 1
 330 323 l 1
 175 130 l 1
 117 130 l 1
EndSplineSet
EndChar

StartChar: h
Encoding: 104 104 133
Width: 556
Flags: HMW
HStem: 0 21G<65 65 65 157 403 403 403 495> 459 72<393.5 463> 698 20G<220 310 310 310>
LayerCount: 2
Fore
SplineSet
65 0 m 1
 220 718 l 1
 310 718 l 1
 252 444 l 1
 290 478 350 531 437 531 c 0
 542 531 573 475 573 410 c 0
 573 376 567 340 561 307 c 2
 495 0 l 1
 403 0 l 1
 471 307 l 2
 485 367 511 459 415 459 c 0
 350 459 297 426 264 385 c 0
 230 340 213 265 204 223 c 2
 157 0 l 1
 65 0 l 1
EndSplineSet
EndChar

StartChar: hungarumlaut
Encoding: 205 733 134
Width: 333
Flags: HMW
HStem: 593 141<157 382 157 382 340 382 258 421 340 340>
LayerCount: 2
Fore
SplineSet
340 593 m 1
 441 734 l 1
 565 734 l 1
 421 593 l 1
 340 593 l 1
157 593 m 1
 258 734 l 1
 382 734 l 1
 238 593 l 1
 157 593 l 1
EndSplineSet
EndChar

StartChar: hyphen
Encoding: 45 45 135
Width: 333
Flags: HMW
HStem: 232 90<93 357 110 340>
VStem: 93 264<232 322>
LayerCount: 2
Fore
SplineSet
93 232 m 1
 110 322 l 1
 357 322 l 1
 340 232 l 1
 93 232 l 1
EndSplineSet
EndChar

StartChar: i
Encoding: 105 105 136
Width: 222
Flags: HMW
HStem: 0 21G<67 67 67 156> 497 20G<176 266 266 266> 619 99<197 308 218 287>
LayerCount: 2
Fore
SplineSet
197 619 m 1
 218 718 l 1
 308 718 l 1
 287 619 l 1
 197 619 l 1
67 0 m 1
 176 517 l 1
 266 517 l 1
 156 0 l 1
 67 0 l 1
EndSplineSet
EndChar

StartChar: iacute
Encoding: 304 237 137
Width: 278
Flags: HMW
HStem: 0 21G<95 95 95 179> 507 20G<199 284 284 284> 714 20G<290 428 428 428>
LayerCount: 2
Fore
SplineSet
95 0 m 1
 199 527 l 1
 284 527 l 1
 179 0 l 1
 95 0 l 1
177 596 m 1
 290 734 l 1
 428 734 l 1
 268 596 l 1
 177 596 l 1
EndSplineSet
EndChar

StartChar: icircumflex
Encoding: 305 238 138
Width: 278
Flags: HMW
HStem: 0 21G<95 95 95 179> 507 20G<199 284 284 284> 596 138<110 347 110 347 329 329 329 347 246 411>
LayerCount: 2
Fore
SplineSet
95 0 m 1
 199 527 l 1
 284 527 l 1
 179 0 l 1
 95 0 l 1
110 596 m 1
 246 734 l 1
 347 734 l 1
 411 596 l 1
 329 596 l 1
 289 685 l 1
 205 596 l 1
 110 596 l 1
EndSplineSet
EndChar

StartChar: idieresis
Encoding: 306 239 139
Width: 278
Flags: HMW
HStem: 0 21G<95 95 95 179> 605 101<125 237 146 216 146 304 325 395>
LayerCount: 2
Fore
SplineSet
95 0 m 1
 199 527 l 1
 284 527 l 1
 179 0 l 1
 95 0 l 1
125 605 m 1
 146 706 l 1
 237 706 l 1
 216 605 l 1
 125 605 l 1
304 605 m 1
 325 706 l 1
 416 706 l 1
 395 605 l 1
 304 605 l 1
EndSplineSet
EndChar

StartChar: igrave
Encoding: 307 236 140
Width: 278
Flags: HMW
HStem: 0 21G<95 95 95 179> 507 20G<199 284 284 284> 714 20G<153 255 255 255>
LayerCount: 2
Fore
SplineSet
244 596 m 1
 153 734 l 1
 255 734 l 1
 310 596 l 1
 244 596 l 1
95 0 m 1
 199 527 l 1
 284 527 l 1
 179 0 l 1
 95 0 l 1
EndSplineSet
EndChar

StartChar: j
Encoding: 106 106 141
Width: 222
Flags: HMW
HStem: -210 21G<16.5 66> 497 20G<184 269 269 269> 619 99<203 308 223 288>
LayerCount: 2
Fore
SplineSet
203 619 m 1
 223 718 l 1
 308 718 l 1
 288 619 l 1
 203 619 l 1
-46 -121 m 1
 37 -144 56 -127 81 -2 c 2
 184 517 l 1
 269 517 l 1
 161 -2 l 2
 144 -86 112 -210 20 -210 c 0
 13 -210 -13 -210 -60 -197 c 1
 -46 -121 l 1
EndSplineSet
EndChar

StartChar: k
Encoding: 107 107 142
Width: 500
Flags: HMW
HStem: 0 21G<67 67 67 157 410 410 410 510> 698 20G<221 311 311 311>
LayerCount: 2
Fore
SplineSet
67 0 m 1
 221 718 l 1
 311 718 l 1
 216 276 l 1
 218 274 l 1
 480 522 l 1
 600 522 l 1
 372 327 l 1
 510 0 l 1
 410 0 l 1
 305 268 l 1
 195 174 l 1
 157 0 l 1
 67 0 l 1
EndSplineSet
EndChar

StartChar: l
Encoding: 108 108 143
Width: 222
Flags: HMW
HStem: 0 21G<67 67 67 157> 698 20G<219 308 308 308>
LayerCount: 2
Fore
SplineSet
67 0 m 1
 219 718 l 1
 308 718 l 1
 157 0 l 1
 67 0 l 1
EndSplineSet
EndChar

StartChar: less
Encoding: 60 60 144
Width: 584
Flags: HMW
HStem: 11 21G<571 571> 475 20G<571 571>
LayerCount: 2
Fore
SplineSet
94 212 m 1
 94 294 l 1
 571 495 l 1
 571 408 l 1
 207 253 l 1
 571 98 l 1
 571 11 l 1
 94 212 l 1
EndSplineSet
EndChar

StartChar: logicalnot
Encoding: 308 172 145
Width: 584
Flags: HMW
HStem: 108 21G<481 563 481 481> 312 78<106 628 123 529>
LayerCount: 2
Fore
SplineSet
106 312 m 1
 123 390 l 1
 628 390 l 1
 563 108 l 1
 481 108 l 1
 529 312 l 1
 106 312 l 1
EndSplineSet
EndChar

StartChar: lslash
Encoding: 248 322 146
Width: 222
Flags: HMW
HStem: 0 21G<53 53 53 155> 698 20G<225 326 326 326>
LayerCount: 2
Fore
SplineSet
53 0 m 1
 126 306 l 1
 41 266 l 1
 58 343 l 1
 145 382 l 1
 225 718 l 1
 326 718 l 1
 258 435 l 1
 347 477 l 1
 329 400 l 1
 240 359 l 1
 155 0 l 1
 53 0 l 1
EndSplineSet
EndChar

StartChar: m
Encoding: 109 109 147
Width: 833
Flags: HMW
HStem: 0 21G<65 65 65 155 374 374 374 463 684 684 684 773> 465 61 465 73<378 432.5 707.5 734.5>
LayerCount: 2
Fore
SplineSet
65 0 m 1
 175 526 l 1
 264 526 l 1
 246 442 l 1
 286 484 336 538 420 538 c 0
 461 538 527 524 546 440 c 1
 619 530 692 538 723 538 c 0
 806 538 852 484 852 404 c 0
 852 384 850 363 845 339 c 2
 773 0 l 1
 684 0 l 1
 758 339 l 2
 772 408 766 465 703 465 c 0
 573 465 530 318 517 256 c 2
 463 0 l 1
 374 0 l 1
 448 339 l 2
 460 392 468 465 397 465 c 0
 275 465 226 335 207 249 c 2
 155 0 l 1
 65 0 l 1
EndSplineSet
EndChar

StartChar: macron
Encoding: 197 175 148
Width: 333
Flags: HMW
HStem: 627 57<143 468 157 453>
LayerCount: 2
Fore
SplineSet
143 627 m 1
 157 684 l 1
 468 684 l 1
 453 627 l 1
 143 627 l 1
EndSplineSet
EndChar

StartChar: minus
Encoding: 309 8722 149
Width: 584
Flags: HMW
HStem: 216 73<85 606 132 559>
LayerCount: 2
Fore
SplineSet
85 216 m 1
 132 289 l 1
 606 289 l 1
 559 216 l 1
 85 216 l 1
EndSplineSet
EndChar

StartChar: mu
Encoding: 310 181 150
Width: 556
Flags: HMW
HStem: -207 21G<24 111 24 24> -16 21G<249.5 315.5> -4 64<239 490 239 407> 503 20G<177 267 267 267 511 600 600 600>
LayerCount: 2
Fore
SplineSet
165 46 m 1
 111 -207 l 1
 24 -207 l 1
 177 523 l 1
 267 523 l 1
 214 272 209 247 208 241 c 0
 187 148 185 60 293 60 c 0
 397 60 432 157 451 241 c 2
 511 523 l 1
 600 523 l 1
 490 -4 l 1
 407 -4 l 1
 415 36 l 1
 413 38 l 1
 390 17 348 -16 283 -16 c 0
 216 -16 183 25 165 46 c 1
EndSplineSet
EndChar

StartChar: multiply
Encoding: 311 215 151
Width: 584
Flags: HMW
HStem: 0 21G<105 105 484 484> 486 20G<221 221>
LayerCount: 2
Fore
SplineSet
50 71 m 1
 287 265 l 1
 144 445 l 1
 221 506 l 1
 364 327 l 1
 588 505 l 1
 642 435 l 1
 419 256 l 1
 561 67 l 1
 484 0 l 1
 342 190 l 1
 105 0 l 1
 50 71 l 1
EndSplineSet
EndChar

StartChar: n
Encoding: 110 110 152
Width: 556
Flags: HMW
HStem: 0 21G<65 65 65 157 405 405 405 497> 465 61 465 73<391.5 454>
LayerCount: 2
Fore
SplineSet
65 0 m 1
 178 526 l 1
 261 526 l 1
 241 436 l 1
 243 434 l 1
 274 467 345 538 438 538 c 0
 528 538 573 470 573 381 c 0
 573 362 570 341 565 319 c 2
 497 0 l 1
 405 0 l 1
 477 319 l 2
 493 387 493 465 415 465 c 0
 283 465 224 319 209 245 c 2
 157 0 l 1
 65 0 l 1
EndSplineSet
EndChar

StartChar: nine
Encoding: 57 57 153
Width: 556
Flags: HMW
HStem: -19 73<241.5 342 241.5 399.5> -19 179 634 69<336 432.5>
VStem: 117 91<384 473.5 384 496.5> 485 97
LayerCount: 2
Fore
SplineSet
208 424 m 0
 208 344 262 291 340 291 c 0
 424 291 512 355 512 477 c 0
 512 547 485 634 380 634 c 0
 292 634 208 523 208 424 c 0
82 156 m 1
 171 164 l 1
 180 103 207 54 276 54 c 0
 408 54 471 246 480 280 c 1
 478 282 l 1
 454 262 399 222 321 222 c 0
 213 222 117 289 117 424 c 0
 117 569 226 703 382 703 c 0
 483 703 609 662 609 476 c 0
 609 332 529 -19 270 -19 c 0
 139 -19 90 70 82 156 c 1
EndSplineSet
EndChar

StartChar: ntilde
Encoding: 312 241 154
Width: 556
Flags: HMW
HStem: 0 21G<65 65 65 158 408 408 408 502> 653 66 702 20G<315 363.5>
VStem: 65 527
LayerCount: 2
Fore
SplineSet
246 612 m 1
 262 670 280 722 350 722 c 0
 377 722 406 711 433 700 c 0
 457 690 479 681 493 681 c 0
 519 681 525 705 530 719 c 1
 592 719 l 1
 587 665 552 611 491 611 c 0
 467 611 447 621 426 631 c 0
 404 642 381 653 352 653 c 0
 326 653 315 636 310 612 c 1
 246 612 l 1
65 0 m 1
 179 524 l 1
 263 524 l 1
 243 435 l 1
 245 433 l 1
 277 465 348 536 442 536 c 0
 529 536 578 477 578 392 c 0
 578 369 576 344 570 318 c 2
 502 0 l 1
 408 0 l 1
 481 318 l 2
 496 385 491 463 419 463 c 0
 326 463 238 367 210 244 c 2
 158 0 l 1
 65 0 l 1
EndSplineSet
EndChar

StartChar: numbersign
Encoding: 35 35 155
Width: 556
Flags: HMW
HStem: -20 21G 193 74 460 73 717 20G
LayerCount: 2
Fore
SplineSet
251 250 m 1
 411 250 l 1
 450 443 l 1
 289 443 l 1
 251 250 l 1
115 -37 m 1
 160 176 l 1
 73 176 l 1
 73 250 l 1
 174 250 l 1
 213 443 l 1
 73 443 l 1
 73 516 l 1
 227 516 l 1
 272 720 l 1
 348 720 l 1
 305 516 l 1
 464 516 l 1
 509 720 l 1
 585 720 l 1
 541 516 l 1
 631 516 l 1
 631 443 l 1
 526 443 l 1
 488 250 l 1
 631 250 l 1
 631 176 l 1
 473 176 l 1
 429 -37 l 1
 352 -37 l 1
 396 176 l 1
 236 176 l 1
 192 -37 l 1
 115 -37 l 1
EndSplineSet
EndChar

StartChar: o
Encoding: 111 111 156
Width: 556
Flags: HMW
HStem: -14 70<285.5 361.5 285.5 377> 468 70<302.5 411>
VStem: 98 90 478 90
LayerCount: 2
Fore
SplineSet
173 211 m 0
 173 69 271 56 300 56 c 0
 423 56 495 207 495 320 c 0
 495 401 454 468 368 468 c 0
 237 468 173 324 173 211 c 0
83 211 m 0
 83 392 187 538 371 538 c 0
 497 538 585 458 585 319 c 0
 585 121 455 -14 299 -14 c 0
 185 -14 83 67 83 211 c 0
EndSplineSet
EndChar

StartChar: oacute
Encoding: 313 243 157
Width: 556
Flags: HMW
HStem: -14 70 714 20G<412 527 527 527>
VStem: 93 90 485 90
LayerCount: 2
Fore
SplineSet
173 208 m 0
 173 68 271 55 301 55 c 0
 423 55 495 203 495 315 c 0
 495 394 455 466 368 466 c 0
 237 466 173 319 173 208 c 0
83 208 m 0
 83 387 187 535 371 535 c 0
 498 535 585 452 585 315 c 0
 585 120 456 -14 300 -14 c 0
 185 -14 83 66 83 208 c 0
319 595 m 1
 412 734 l 1
 527 734 l 1
 394 595 l 1
 319 595 l 1
EndSplineSet
EndChar

StartChar: ocircumflex
Encoding: 314 244 158
Width: 556
Flags: HMW
HStem: -14 70 595 139<248 480 248 480 462 462 462 480 381 542>
VStem: 93 90 480 90
LayerCount: 2
Fore
SplineSet
173 208 m 0
 173 68 271 55 301 55 c 0
 423 55 495 203 495 315 c 0
 495 394 455 466 368 466 c 0
 237 466 173 319 173 208 c 0
83 208 m 0
 83 387 187 535 371 535 c 0
 498 535 585 452 585 315 c 0
 585 120 456 -14 300 -14 c 0
 185 -14 83 66 83 208 c 0
248 595 m 1
 381 734 l 1
 480 734 l 1
 542 595 l 1
 462 595 l 1
 422 685 l 1
 341 595 l 1
 248 595 l 1
EndSplineSet
EndChar

StartChar: odieresis
Encoding: 315 246 159
Width: 556
Flags: HMW
HStem: -14 69<286 362 286 378> 605 101<264 379 285 358 285 448 469 542>
VStem: 93 90 475 90
LayerCount: 2
Fore
SplineSet
264 605 m 1
 285 706 l 1
 379 706 l 1
 358 605 l 1
 264 605 l 1
448 605 m 1
 469 706 l 1
 564 706 l 1
 542 605 l 1
 448 605 l 1
173 208 m 0
 173 68 271 55 301 55 c 0
 423 55 495 203 495 315 c 0
 495 394 455 466 368 466 c 0
 237 466 173 319 173 208 c 0
83 208 m 0
 83 387 187 535 371 535 c 0
 498 535 585 452 585 315 c 0
 585 120 456 -14 300 -14 c 0
 185 -14 83 66 83 208 c 0
EndSplineSet
EndChar

StartChar: oe
Encoding: 250 339 160
Width: 944
Flags: HMW
HStem: -15 73<648 725 630 746.5> -15 187 238 69<583 875 583 955 569 875> 469 69<293 376 270 413.5 731.5 766.5>
VStem: 83 89<191 246 191 284> 875 89<307 383.5>
LayerCount: 2
Fore
SplineSet
583 307 m 1
 875 307 l 1
 889 465 777 469 756 469 c 0
 707 469 627 438 583 307 c 1
172 205 m 0
 172 177 172 54 294 54 c 0
 425 54 489 218 489 327 c 0
 489 380 461 469 366 469 c 0
 220 469 172 287 172 205 c 0
503 88 m 1
 474 55 413 -15 293 -15 c 0
 185 -15 83 47 83 205 c 0
 83 363 175 538 365 538 c 0
 387 538 495 538 551 439 c 1
 591 481 647 538 755 538 c 0
 883 538 964 447 964 320 c 0
 964 295 959 257 955 238 c 1
 569 238 l 1
 561 180 575 58 685 58 c 0
 765 58 820 135 838 177 c 1
 932 168 l 1
 895 83 809 -15 684 -15 c 0
 612 -15 543 13 503 88 c 1
EndSplineSet
EndChar

StartChar: ogonek
Encoding: 206 731 161
Width: 333
Flags: HMW
HStem: -225 21G<91 155> -20 20G<79 133 133 133>
VStem: 43 62<-127 -114.5>
LayerCount: 2
Fore
SplineSet
79 0 m 1
 133 0 l 1
 127 -15 105 -65 105 -100 c 0
 105 -154 152 -160 162 -160 c 0
 185 -160 212 -152 249 -137 c 1
 237 -197 l 1
 218 -208 179 -225 131 -225 c 0
 51 -225 43 -163 43 -134 c 0
 43 -95 57 -46 79 0 c 1
EndSplineSet
EndChar

StartChar: ograve
Encoding: 316 242 162
Width: 556
Flags: HMW
HStem: -14 70
VStem: 103 90 485 90
LayerCount: 2
Fore
SplineSet
173 208 m 0
 173 68 271 55 301 55 c 0
 423 55 495 203 495 315 c 0
 495 394 455 466 368 466 c 0
 237 466 173 319 173 208 c 0
83 208 m 0
 83 387 187 535 371 535 c 0
 498 535 585 452 585 315 c 0
 585 120 456 -14 300 -14 c 0
 185 -14 83 66 83 208 c 0
392 595 m 1
 295 734 l 1
 404 734 l 1
 462 595 l 1
 392 595 l 1
EndSplineSet
EndChar

StartChar: one
Encoding: 49 49 163
Width: 556
Flags: HMW
HStem: 0 21G<291 291 291 371> 528 175<393 508>
VStem: 207 301<439 703>
LayerCount: 2
Fore
SplineSet
291 0 m 1
 393 528 l 1
 391 530 l 1
 339 483 257 453 207 439 c 1
 222 517 l 1
 280 542 412 617 461 703 c 1
 508 703 l 1
 371 0 l 1
 291 0 l 1
EndSplineSet
EndChar

StartChar: onehalf
Encoding: 317 189 164
Width: 834
Flags: HMW
HStem: -19 21G<114 114 114 188> -11 57<636 800> 286 56<688.5 729> 682 20G<338 390 390 390> 683 20G<758 839 839 839>
VStem: 766 70<225 252>
LayerCount: 2
Fore
SplineSet
247 350 m 1
 299 601 l 1
 255 569 211 558 182 553 c 1
 195 612 l 1
 213 618 292 646 338 702 c 1
 390 702 l 1
 317 350 l 1
 247 350 l 1
525 -11 m 1
 541 41 569 95 692 166 c 0
 741 195 766 209 766 241 c 0
 766 263 749 286 709 286 c 0
 668 286 643 272 630 232 c 1
 560 238 l 1
 579 309 628 342 707 342 c 0
 804 342 836 288 836 241 c 0
 836 183 792 153 738 120 c 0
 675 81 654 69 636 46 c 1
 811 46 l 1
 800 -11 l 1
 525 -11 l 1
114 -19 m 1
 758 703 l 1
 839 703 l 1
 188 -19 l 1
 114 -19 l 1
EndSplineSet
EndChar

StartChar: onequarter
Encoding: 318 188 165
Width: 834
Flags: HMW
HStem: -19 21G<150 150 150 217> -11 21G<619 678 619 619> 60 54<549 632 549 692 702 733> 682 20G<331 378 378 378> 683 20G<729 802 802 802>
LayerCount: 2
Fore
SplineSet
249 350 m 1
 296 600 l 1
 256 568 217 558 191 552 c 1
 202 612 l 1
 218 617 292 648 331 702 c 1
 378 702 l 1
 313 350 l 1
 249 350 l 1
150 -19 m 1
 729 703 l 1
 802 703 l 1
 217 -19 l 1
 150 -19 l 1
549 114 m 1
 641 114 l 1
 668 237 l 1
 549 114 l 1
470 60 m 1
 480 117 l 1
 694 341 l 1
 744 341 l 1
 702 114 l 1
 744 114 l 1
 733 60 l 1
 692 60 l 1
 678 -11 l 1
 619 -11 l 1
 632 60 l 1
 470 60 l 1
EndSplineSet
EndChar

StartChar: onesuperior
Encoding: 319 185 166
Width: 333
Flags: HMW
HStem: 281 21G<230 230 230 300> 683 20G<320 371 371 371>
LayerCount: 2
Fore
SplineSet
230 281 m 1
 282 583 l 1
 237 545 194 532 166 525 c 1
 178 597 l 1
 196 604 274 636 320 703 c 1
 371 703 l 1
 300 281 l 1
 230 281 l 1
EndSplineSet
EndChar

StartChar: ordfeminine
Encoding: 227 170 167
Width: 370
Flags: HMW
HStem: 297 20G<346 346 346 418> 304 21G<171 244.5> 489 69 717 20G<247 362>
VStem: 100 75<406.5 451 406.5 483.5>
LayerCount: 2
Fore
SplineSet
356 505 m 1
 326 497 317 494 255 489 c 0
 223 484 175 474 175 428 c 0
 175 385 214 373 232 373 c 0
 249 373 330 375 356 505 c 1
346 317 m 1
 343 328 343 331 339 354 c 1
 321 336 272 304 217 304 c 0
 125 304 100 381 100 421 c 0
 100 546 222 555 278 558 c 0
 322 559 338 563 370 570 c 1
 375 585 377 597 377 607 c 0
 377 647 339 668 305 668 c 0
 294 668 237 667 210 598 c 1
 135 612 l 1
 148 646 188 737 306 737 c 0
 418 737 448 680 448 605 c 0
 448 566 438 524 427 483 c 0
 406 404 408 386 408 372 c 0
 408 339 411 329 418 317 c 1
 346 317 l 1
EndSplineSet
EndChar

StartChar: ordmasculine
Encoding: 235 186 168
Width: 365
Flags: HMW
HStem: 304 76<231.5 302.5 231.5 324> 661 76<260.5 328.5>
VStem: 100 77<464.5 523.5 464.5 539> 391 77<520.5 589.5>
LayerCount: 2
Fore
SplineSet
177 498 m 0
 177 431 201 380 262 380 c 0
 343 380 391 481 391 560 c 0
 391 619 354 661 303 661 c 0
 218 661 177 549 177 498 c 0
100 496 m 0
 100 582 160 737 303 737 c 0
 412 737 468 652 468 560 c 0
 468 446 386 304 262 304 c 0
 130 304 100 396 100 496 c 0
EndSplineSet
EndChar

StartChar: oslash
Encoding: 249 248 169
Width: 611
Flags: HMW
HStem: 16 63 445 63
VStem: 49 75 472 77
LayerCount: 2
Fore
SplineSet
197 97 m 1
 218 84 243 76 272 76 c 0
 397 76 477 206 477 309 c 0
 477 348 461 367 456 382 c 1
 197 97 l 1
161 137 m 1
 419 425 l 1
 411 432 388 449 341 449 c 0
 204 449 139 309 139 212 c 0
 139 183 148 160 161 137 c 1
45 9 m 1
 103 74 l 1
 87 100 64 136 64 211 c 0
 64 343 138 512 345 512 c 0
 417 512 457 489 470 481 c 1
 528 545 l 1
 573 513 l 1
 514 447 l 1
 543 412 554 366 554 309 c 0
 554 140 435 13 272 13 c 0
 209 13 167 31 147 42 c 1
 90 -22 l 1
 45 9 l 1
EndSplineSet
EndChar

StartChar: otilde
Encoding: 320 245 170
Width: 556
Flags: HMW
HStem: -14 69<286 362 286 378> 440 68 611 108 653 66 702 20G<316 368>
VStem: 90 93 475 93
LayerCount: 2
Fore
SplineSet
173 208 m 0
 173 68 271 55 301 55 c 0
 423 55 495 203 495 315 c 0
 495 394 455 466 368 466 c 0
 237 466 173 319 173 208 c 0
83 208 m 0
 83 387 187 535 371 535 c 0
 498 535 585 452 585 315 c 0
 585 120 456 -14 300 -14 c 0
 185 -14 83 66 83 208 c 0
247 611 m 1
 263 670 281 722 351 722 c 0
 385 722 414 712 438 701 c 0
 462 691 481 680 496 680 c 0
 523 680 529 705 533 719 c 1
 596 719 l 1
 590 665 555 610 494 610 c 0
 471 610 452 618 434 627 c 0
 410 639 388 653 354 653 c 0
 328 653 317 636 311 611 c 1
 247 611 l 1
EndSplineSet
EndChar

StartChar: p
Encoding: 112 112 171
Width: 556
Flags: HMW
HStem: -207 21G<14 106 14 14> -16 74<283.5 379.5 269 386> 464 62 464 74<369 416.5>
VStem: 492 92<281.5 356>
LayerCount: 2
Fore
SplineSet
196 213 m 0
 196 137 224 58 314 58 c 0
 445 58 492 243 492 320 c 0
 492 392 456 464 377 464 c 0
 260 464 196 298 196 213 c 0
167 82 m 1
 106 -207 l 1
 14 -207 l 1
 170 526 l 1
 256 526 l 1
 240 454 l 1
 287 500 334 538 404 538 c 0
 505 538 584 461 584 320 c 0
 584 129 454 -16 318 -16 c 0
 249 -16 201 18 167 82 c 1
EndSplineSet
EndChar

StartChar: paragraph
Encoding: 182 182 172
Width: 537
Flags: HMW
HStem: -173 21G<318 318 318 396 503 503 503 582> 639 79<396 503 396 396 582 650 582 582>
LayerCount: 2
Fore
SplineSet
318 -173 m 1
 318 325 l 1
 200 325 126 419 126 517 c 0
 126 650 231 718 350 718 c 2
 650 718 l 1
 650 639 l 1
 582 639 l 1
 582 -173 l 1
 503 -173 l 1
 503 639 l 1
 396 639 l 1
 396 -173 l 1
 318 -173 l 1
EndSplineSet
EndChar

StartChar: parenleft
Encoding: 40 40 173
Width: 333
Flags: HMW
HStem: -207 21G<185 185 185 251> 713 20G<385 454 454 454>
VStem: 108 87<71.5 276>
LayerCount: 2
Fore
SplineSet
185 -207 m 1
 135 -98 108 15 108 128 c 0
 108 424 277 607 385 733 c 1
 454 733 l 1
 419 695 195 454 195 128 c 0
 195 15 216 -99 251 -207 c 1
 185 -207 l 1
EndSplineSet
EndChar

StartChar: parenright
Encoding: 41 41 174
Width: 333
Flags: HMW
HStem: -207 21G<-9 -9 -9 60> 713 20G<194 260 260 260>
VStem: 250 87<241 445.5 241 445.5>
LayerCount: 2
Fore
SplineSet
-9 -207 m 1
 26 -169 250 63 250 389 c 0
 250 502 229 625 194 733 c 1
 260 733 l 1
 310 624 337 502 337 389 c 0
 337 93 168 -81 60 -207 c 1
 -9 -207 l 1
EndSplineSet
EndChar

StartChar: percent
Encoding: 37 37 175
Width: 889
Flags: HMW
HStem: -19 56<674 751.5 674 793.5> 282 60<708 757.5> 337 57<253.5 331.5 253.5 372.5> 640 57<287.5 341> 683 20G<777 858 858 858>
VStem: 147 77<460.5 488 460.5 503> 393 76<562.5 594.5> 568 76<99 127.5 99 142> 812 77<208 243>
LayerCount: 2
Fore
SplineSet
180 -19 m 1
 777 703 l 1
 858 703 l 1
 263 -19 l 1
 180 -19 l 1
224 471 m 0
 224 450 226 394 281 394 c 0
 382 394 393 552 393 566 c 0
 393 623 351 640 331 640 c 0
 244 640 224 505 224 471 c 0
147 471 m 0
 147 535 197 697 327 697 c 0
 393 697 469 675 469 566 c 0
 469 559 466 337 279 337 c 0
 147 337 147 436 147 471 c 0
644 110 m 0
 644 88 646 37 702 37 c 0
 801 37 812 196 812 211 c 0
 812 275 763 282 752 282 c 0
 664 282 644 145 644 110 c 0
568 110 m 0
 568 174 617 342 749 342 c 0
 813 342 889 320 889 211 c 0
 889 205 887 -19 700 -19 c 0
 568 -19 568 75 568 110 c 0
EndSplineSet
EndChar

StartChar: period
Encoding: 46 46 176
Width: 278
Flags: HMW
HStem: 0 106<87 214 109 192>
LayerCount: 2
Fore
SplineSet
87 0 m 1
 109 106 l 1
 214 106 l 1
 192 0 l 1
 87 0 l 1
EndSplineSet
EndChar

StartChar: periodcentered
Encoding: 180 183 177
Width: 278
Flags: HMW
HStem: 190 125<129 257 151 235>
LayerCount: 2
Fore
SplineSet
129 190 m 1
 151 315 l 1
 257 315 l 1
 235 190 l 1
 129 190 l 1
EndSplineSet
EndChar

StartChar: perthousand
Encoding: 189 8240 178
Width: 1000
Flags: HMW
HStem: -19 56<490.5 558 490.5 592.5 827.5 894.5> 285 57 342 56<186.5 254 186.5 288.5> 645 56<219.5 290.5> 683 20G<587 661 661 661>
VStem: 88 72<459.5 476 459.5 513> 317 72<561 583.5> 392 72<98.5 115.5 98.5 152>
LayerCount: 2
Fore
SplineSet
801 110 m 0
 801 87 801 37 854 37 c 0
 935 37 957 181 957 216 c 0
 957 226 957 282 905 282 c 0
 816 282 801 121 801 110 c 0
729 110 m 0
 729 188 785 339 907 339 c 0
 983 339 1029 292 1029 216 c 0
 1029 172 1007 -19 853 -19 c 0
 729 -19 729 87 729 110 c 0
464 110 m 0
 464 87 464 37 517 37 c 0
 599 37 621 181 621 216 c 0
 621 226 621 282 568 282 c 0
 479 282 464 121 464 110 c 0
392 110 m 0
 392 194 436 339 570 339 c 0
 648 339 693 291 693 216 c 0
 693 170 669 -19 516 -19 c 0
 392 -19 392 87 392 110 c 0
88 471 m 0
 88 555 132 701 266 701 c 0
 344 701 389 653 389 579 c 0
 389 533 365 342 212 342 c 0
 88 342 88 448 88 471 c 0
121 -19 m 1
 587 703 l 1
 661 703 l 1
 194 -19 l 1
 121 -19 l 1
160 471 m 0
 160 448 160 398 213 398 c 0
 295 398 317 543 317 579 c 0
 317 588 317 645 264 645 c 0
 175 645 160 481 160 471 c 0
EndSplineSet
EndChar

StartChar: plus
Encoding: 43 43 179
Width: 584
Flags: HMW
HStem: 208 87<85 300 85 300 391 606>
VStem: 300 91<0 208 0 208 295 505>
LayerCount: 2
Fore
SplineSet
85 208 m 1
 85 295 l 1
 300 295 l 1
 300 505 l 1
 391 505 l 1
 391 295 l 1
 606 295 l 1
 606 208 l 1
 391 208 l 1
 391 0 l 1
 300 0 l 1
 300 208 l 1
 85 208 l 1
EndSplineSet
EndChar

StartChar: plusminus
Encoding: 321 177 180
Width: 584
Flags: HMW
HStem: 0 68<39 528 62 506> 276 68<150 321 128 344 150 402 425 595> 486 20G<396 477 477 477>
LayerCount: 2
Fore
SplineSet
39 0 m 1
 62 68 l 1
 528 68 l 1
 506 0 l 1
 39 0 l 1
268 114 m 1
 321 276 l 1
 128 276 l 1
 150 344 l 1
 344 344 l 1
 396 506 l 1
 477 506 l 1
 425 344 l 1
 618 344 l 1
 595 276 l 1
 402 276 l 1
 350 114 l 1
 268 114 l 1
EndSplineSet
EndChar

StartChar: q
Encoding: 113 113 181
Width: 556
Flags: HMW
HStem: -207 21G<356 449 356 356> -16 73<253 282> 465 73<285 361.5 277 385.5> 506 20G<525 605 605 605>
VStem: 84 92<161 246 161 306>
LayerCount: 2
Fore
SplineSet
176 211 m 0
 176 111 217 57 289 57 c 0
 400 57 471 214 471 326 c 0
 471 405 421 465 350 465 c 0
 220 465 176 281 176 211 c 0
413 54 m 1
 349 -2 302 -16 262 -16 c 0
 189 -16 84 43 84 211 c 0
 84 401 204 538 350 538 c 0
 373 538 457 535 505 429 c 1
 525 526 l 1
 605 526 l 1
 449 -207 l 1
 356 -207 l 1
 413 54 l 1
EndSplineSet
EndChar

StartChar: question
Encoding: 63 63 182
Width: 556
Flags: HMW
HStem: 0 100<199 325 221 303> 655 72<336 433>
VStem: 242 104
LayerCount: 2
Fore
SplineSet
199 0 m 1
 221 100 l 1
 325 100 l 1
 303 0 l 1
 199 0 l 1
245 179 m 1
 258 289 318 337 400 401 c 0
 453 443 519 490 519 553 c 0
 519 606 468 655 398 655 c 0
 274 655 259 542 254 505 c 1
 161 520 l 1
 161 610 248 727 396 727 c 0
 524 727 610 649 610 553 c 0
 610 463 539 409 447 337 c 0
 352 264 342 239 331 179 c 1
 245 179 l 1
EndSplineSet
EndChar

StartChar: questiondown
Encoding: 191 191 183
Width: 611
Flags: HMW
HStem: -201 72 330 20G<367 454 454 454> 429 96<373 500 395 478>
VStem: 85 93<-58.5 0 -58.5 13.5>
LayerCount: 2
Fore
SplineSet
373 429 m 1
 395 525 l 1
 500 525 l 1
 478 429 l 1
 373 429 l 1
450 23 m 1
 534 8 l 1
 534 -95 423 -201 302 -201 c 0
 172 -201 85 -128 85 -32 c 0
 85 59 157 119 250 191 c 0
 346 264 356 289 367 350 c 1
 454 350 l 1
 441 239 380 191 297 127 c 0
 244 85 178 32 178 -32 c 0
 178 -85 229 -130 300 -129 c 0
 403 -128 445 -14 450 23 c 1
EndSplineSet
EndChar

StartChar: quotedbl
Encoding: 34 34 184
Width: 355
Flags: HMW
HStem: 463 21G<168 168 168 217 321 321 321 370> 698 20G<195 285 285 285 348 438 438 438>
VStem: 168 270<463 718>
LayerCount: 2
Fore
SplineSet
168 463 m 1
 173 602 l 1
 195 718 l 1
 285 718 l 1
 263 602 l 1
 217 463 l 1
 168 463 l 1
321 463 m 1
 325 602 l 1
 348 718 l 1
 438 718 l 1
 415 602 l 1
 370 463 l 1
 321 463 l 1
EndSplineSet
EndChar

StartChar: quotedblbase
Encoding: 185 8222 185
Width: 333
Flags: HMW
HStem: -149 21G<-6 -6 160 160> 1 105<25 152 47 83 213 248 47 191>
LayerCount: 2
Fore
SplineSet
191 1 m 1
 213 106 l 1
 318 106 l 1
 299 15 l 2
 292 -22 267 -135 160 -149 c 1
 168 -108 l 1
 185 -104 228 -93 248 1 c 1
 191 1 l 1
25 1 m 1
 47 106 l 1
 152 106 l 1
 134 15 l 2
 126 -22 101 -135 -6 -149 c 1
 2 -108 l 1
 19 -104 63 -93 83 1 c 1
 25 1 l 1
EndSplineSet
EndChar

StartChar: quotedblleft
Encoding: 170 8220 186
Width: 333
Flags: HMW
HStem: 470 105<138 265 208 243 208 303 373 408> 705 20G<296 296 461 461>
VStem: 138 105<470 470>
LayerCount: 2
Fore
SplineSet
138 470 m 1
 157 561 l 2
 164 598 189 711 296 725 c 1
 288 684 l 1
 271 680 227 669 208 575 c 1
 265 575 l 1
 243 470 l 1
 138 470 l 1
303 470 m 1
 322 561 l 2
 329 598 354 711 461 725 c 1
 453 684 l 1
 436 680 392 669 373 575 c 1
 430 575 l 1
 408 470 l 1
 303 470 l 1
EndSplineSet
EndChar

StartChar: quotedblright
Encoding: 186 8221 187
Width: 333
Flags: HMW
HStem: 463 21G<124 124 290 290> 613 105<177 213 155 282 177 321 343 378>
LayerCount: 2
Fore
SplineSet
290 463 m 1
 298 504 l 1
 315 508 358 519 378 613 c 1
 321 613 l 1
 343 718 l 1
 448 718 l 1
 429 627 l 2
 422 590 397 477 290 463 c 1
124 463 m 1
 132 504 l 1
 149 508 193 519 213 613 c 1
 155 613 l 1
 177 718 l 1
 282 718 l 1
 264 627 l 2
 256 590 231 477 124 463 c 1
EndSplineSet
EndChar

StartChar: quoteleft
Encoding: 96 8216 188
Width: 222
Flags: HMW
HStem: 470 21G<165 165 165 270> 705 20G<323 323>
LayerCount: 2
Fore
SplineSet
165 470 m 1
 184 562 l 2
 191 599 216 711 323 725 c 1
 315 684 l 1
 298 680 254 670 235 575 c 1
 292 575 l 1
 270 470 l 1
 165 470 l 1
EndSplineSet
EndChar

StartChar: quoteright
Encoding: 39 8217 189
Width: 222
Flags: HMW
HStem: 463 21G<151 151> 698 20G<204 310 310 310>
LayerCount: 2
Fore
SplineSet
151 463 m 1
 159 504 l 1
 176 508 220 519 240 613 c 1
 182 613 l 1
 204 718 l 1
 310 718 l 1
 291 627 l 2
 284 590 259 477 151 463 c 1
EndSplineSet
EndChar

StartChar: quotesinglbase
Encoding: 184 8218 190
Width: 222
Flags: HMW
HStem: -149 21G<21 21> 86 20G<74 180 180 180>
LayerCount: 2
Fore
SplineSet
52 1 m 1
 74 106 l 1
 180 106 l 1
 161 15 l 2
 153 -22 129 -135 21 -149 c 1
 29 -108 l 1
 46 -104 90 -93 110 1 c 1
 52 1 l 1
EndSplineSet
EndChar

StartChar: quotesingle
Encoding: 169 39 191
Width: 191
Flags: HMW
HStem: 463 21G<157 157 157 211> 698 20G<187 285 285 285>
LayerCount: 2
Fore
SplineSet
157 463 m 1
 162 602 l 1
 187 718 l 1
 285 718 l 1
 260 602 l 1
 211 463 l 1
 157 463 l 1
EndSplineSet
EndChar

StartChar: r
Encoding: 114 114 192
Width: 333
Flags: HMW
HStem: 0 21G<77 77 77 157> 453 73<181 371.5> 453 85<346 371.5>
LayerCount: 2
Fore
SplineSet
77 0 m 1
 181 526 l 1
 255 526 l 1
 236 419 l 1
 256 454 309 538 383 538 c 0
 406 538 425 530 446 519 c 1
 411 435 l 1
 396 448 380 453 363 453 c 0
 274 453 221 322 199 211 c 2
 157 0 l 1
 77 0 l 1
EndSplineSet
EndChar

StartChar: registered
Encoding: 322 174 193
Width: 737
Flags: HMW
HStem: -19 63<354 535 354 554.5> 323 56<369 398 358 452> 501 55<394 472 394 394> 674 63<354 535>
VStem: 54 65<272.5 447 272.5 465> 772 65<272.5 447>
LayerCount: 2
Fore
SplineSet
119 360 m 0
 119 185 264 44 444 44 c 0
 626 44 772 185 772 360 c 0
 772 534 626 674 444 674 c 0
 264 674 119 534 119 360 c 0
54 360 m 0
 54 570 232 737 446 737 c 0
 660 737 837 569 837 360 c 0
 837 151 663 -19 446 -19 c 0
 230 -19 54 150 54 360 c 0
369 379 m 1
 452 379 l 2
 484 379 554 379 567 441 c 0
 579 501 513 501 472 501 c 2
 394 501 l 1
 369 379 l 1
255 150 m 1
 335 556 l 1
 482 556 l 2
 563 556 657 538 639 441 c 0
 630 395 585 338 497 333 c 1
 496 331 l 1
 520 323 537 310 575 229 c 2
 610 150 l 1
 527 150 l 1
 503 214 l 2
 469 302 452 323 398 323 c 2
 358 323 l 1
 324 150 l 1
 255 150 l 1
EndSplineSet
EndChar

StartChar: ring
Encoding: 202 730 194
Width: 333
Flags: HMW
HStem: 572 38<293 323.5 293 333.5> 718 38<292.5 323.5>
VStem: 214 39<648 678.5 648 690.5> 363 39<648 679>
LayerCount: 2
Fore
SplineSet
253 663 m 0
 253 633 278 610 308 610 c 0
 339 610 363 633 363 663 c 0
 363 695 339 718 308 718 c 0
 277 718 253 694 253 663 c 0
214 665 m 0
 214 716 256 756 308 756 c 0
 360 756 402 716 402 665 c 0
 402 613 359 572 308 572 c 0
 257 572 214 613 214 665 c 0
EndSplineSet
EndChar

StartChar: s
Encoding: 115 115 195
Width: 500
Flags: HMW
HStem: -15 69<253 315.5 219 351.5> 469 69<285.5 326>
VStem: 137 83<375 411.5 375 427.5> 401 91<109.5 158.5> 440 89<371 412.5>
LayerCount: 2
Fore
SplineSet
63 178 m 1
 153 184 l 1
 153 155 155 54 283 54 c 0
 348 54 401 84 401 135 c 0
 401 182 356 204 293 232 c 0
 203 272 137 309 137 396 c 0
 137 459 185 538 324 538 c 0
 401 538 529 507 529 371 c 1
 440 366 l 1
 440 459 334 469 318 469 c 0
 253 469 220 427 220 396 c 0
 220 354 253 345 319 317 c 0
 416 275 492 231 492 135 c 0
 492 58 425 -15 278 -15 c 0
 228 -15 63 -3 63 178 c 1
EndSplineSet
EndChar

StartChar: scaron
Encoding: 323 353 196
Width: 500
Flags: HMW
HStem: -15 70<261 326.5 226.5 364> 473 70<296 338>
VStem: 140 87<368 404.5 368 421> 247 83<734 734> 417 94<110.5 160.5> 457 93<374 423>
LayerCount: 2
Fore
SplineSet
312 595 m 1
 247 734 l 1
 330 734 l 1
 371 644 l 1
 456 734 l 1
 552 734 l 1
 414 595 l 1
 312 595 l 1
63 179 m 1
 157 186 l 1
 157 157 160 55 293 55 c 0
 360 55 417 85 417 136 c 0
 417 185 370 205 303 234 c 0
 209 274 140 302 140 389 c 0
 140 453 189 543 336 543 c 0
 417 543 550 512 550 374 c 1
 457 369 l 1
 457 477 346 473 330 473 c 0
 262 473 227 420 227 389 c 0
 227 347 262 348 331 319 c 0
 431 276 511 233 511 136 c 0
 511 60 441 -15 287 -15 c 0
 235 -15 63 -4 63 179 c 1
EndSplineSet
EndChar

StartChar: section
Encoding: 167 167 197
Width: 556
Flags: HMW
HStem: -191 67<274 317 274 345.5> 666 71<366 404>
LayerCount: 2
Fore
SplineSet
384 122 m 1
 464 160 479 206 479 230 c 0
 479 260 466 278 423 315 c 0
 371 358 321 402 288 438 c 1
 262 423 196 375 196 311 c 0
 196 271 225 253 279 209 c 0
 318 178 362 143 384 122 c 1
76 -26 m 1
 156 -6 l 1
 180 -119 262 -124 286 -124 c 0
 348 -124 392 -78 392 -32 c 0
 392 13 368 30 229 145 c 0
 168 197 119 237 119 311 c 0
 119 409 198 453 254 481 c 1
 231 508 217 542 217 579 c 0
 217 662 278 737 399 737 c 0
 559 737 576 624 584 574 c 1
 498 563 l 1
 498 663 413 666 395 666 c 0
 337 666 297 627 297 581 c 0
 297 526 346 485 426 419 c 0
 524 339 559 292 559 230 c 0
 559 175 525 124 427 76 c 1
 460 38 474 3 474 -32 c 0
 474 -110 405 -191 286 -191 c 0
 193 -191 101 -145 76 -26 c 1
EndSplineSet
EndChar

StartChar: semicolon
Encoding: 59 59 198
Width: 278
Flags: HMW
HStem: -147 21G<56 56> -1 21G<87 87 87 145> 420 96<175 301 197 279>
VStem: 56 245
LayerCount: 2
Fore
SplineSet
175 420 m 1
 197 516 l 1
 301 516 l 1
 279 420 l 1
 175 420 l 1
87 -1 m 1
 109 99 l 1
 213 99 l 1
 195 12 l 2
 188 -23 163 -134 56 -147 c 1
 65 -108 l 1
 81 -104 125 -92 145 -1 c 1
 87 -1 l 1
EndSplineSet
EndChar

StartChar: seven
Encoding: 55 55 199
Width: 556
Flags: HMW
HStem: 0 21G<166 166 166 268> 629 79
LayerCount: 2
Fore
SplineSet
166 0 m 1
 193 155 330 424 537 613 c 1
 137 613 l 1
 156 692 l 1
 669 692 l 1
 650 613 l 1
 449 446 314 190 268 0 c 1
 166 0 l 1
EndSplineSet
EndChar

StartChar: six
Encoding: 54 54 200
Width: 556
Flags: HMW
HStem: -19 69<279.5 362 279.5 394> 394 69<339 397> 639 73
VStem: 91 94<174 269.5 174 281> 477 90
LayerCount: 2
Fore
SplineSet
185 209 m 0
 185 139 241 50 318 50 c 0
 406 50 490 154 490 253 c 0
 490 332 436 394 358 394 c 0
 275 394 185 330 185 209 c 0
219 405 m 1
 243 424 300 463 378 463 c 0
 485 463 580 386 580 253 c 0
 580 108 472 -19 316 -19 c 0
 216 -19 91 24 91 209 c 0
 91 353 171 703 428 703 c 0
 558 703 607 613 615 528 c 1
 527 520 l 1
 519 579 491 630 422 630 c 0
 291 630 227 438 219 405 c 1
EndSplineSet
EndChar

StartChar: slash
Encoding: 47 47 201
Width: 278
Flags: HMW
HStem: -19 21G<-21 -21 -21 50>
VStem: -3 473
LayerCount: 2
Fore
SplineSet
-21 -19 m 1
 381 737 l 1
 452 737 l 1
 50 -19 l 1
 -21 -19 l 1
EndSplineSet
EndChar

StartChar: sterling
Encoding: 163 163 203
Width: 556
Flags: HMW
HStem: -16 21G<59 59 406 427> 312 72<107 193 107 201 92 193 289 289 289 414> 648 70<396.5 432.5>
VStem: 184 91<478.5 551 478.5 552>
LayerCount: 2
Fore
SplineSet
59 -16 m 1
 49 69 l 1
 96 96 221 194 201 312 c 1
 92 312 l 1
 107 384 l 1
 193 384 l 1
 186 428 184 441 184 485 c 0
 184 619 296 718 424 718 c 0
 496 718 617 685 634 529 c 1
 553 521 l 1
 538 645 442 648 423 648 c 0
 370 648 275 617 275 485 c 0
 275 472 276 435 286 384 c 1
 429 384 l 1
 414 312 l 1
 289 312 l 1
 292 194 237 137 184 99 c 1
 187 98 l 1
 234 105 276 97 314 88 c 0
 352 79 386 68 418 68 c 0
 428 68 474 68 526 98 c 1
 554 20 l 1
 478 -16 432 -16 422 -16 c 0
 390 -16 353 -6 313 4 c 0
 270 15 225 27 182 28 c 0
 137 29 95 19 59 -16 c 1
EndSplineSet
EndChar

StartChar: t
Encoding: 116 116 204
Width: 278
Flags: HMW
HStem: -7 71<168.5 240> 425 64<117 174 103 189 279 353> 649 20G<320 320>
VStem: 111 265
LayerCount: 2
Fore
SplineSet
270 2 m 1
 242 -6 214 -7 206 -7 c 0
 131 -7 102 28 102 86 c 0
 102 106 105 128 110 153 c 2
 174 425 l 1
 103 425 l 1
 117 489 l 1
 189 489 l 1
 216 611 l 1
 320 669 l 1
 279 489 l 1
 368 489 l 1
 353 425 l 1
 264 425 l 1
 204 153 l 2
 193 103 193 64 231 64 c 0
 249 64 267 66 285 70 c 1
 270 2 l 1
EndSplineSet
EndChar

StartChar: thorn
Encoding: 324 254 205
Width: 556
Flags: HMW
HStem: -207 21G<14 106 14 14> -18 73<283 379 269 386> 457 73<378 416> 698 20G<214 307 307 307>
VStem: 38 92 492 92<276.5 351>
LayerCount: 2
Fore
SplineSet
196 207 m 0
 196 133 224 55 314 55 c 0
 444 55 492 238 492 315 c 0
 492 387 455 457 377 457 c 0
 259 457 196 291 196 207 c 0
168 78 m 1
 106 -207 l 1
 14 -207 l 1
 214 718 l 1
 307 718 l 1
 249 457 l 1
 306 510 352 530 404 530 c 0
 506 530 584 453 584 315 c 0
 584 125 454 -18 318 -18 c 0
 248 -18 202 16 168 78 c 1
EndSplineSet
EndChar

StartChar: three
Encoding: 51 51 206
Width: 556
Flags: HMW
HStem: -19 69<257.5 356 246 383> 321 73<323 353.5> 634 69<380 428.5>
VStem: 477 96<165 240>
LayerCount: 2
Fore
SplineSet
75 177 m 1
 167 188 l 1
 172 151 186 50 306 50 c 0
 406 50 477 129 477 201 c 0
 477 279 400 321 307 321 c 1
 323 394 l 1
 447 394 516 461 516 518 c 0
 516 583 463 634 394 634 c 0
 336 634 269 596 251 503 c 1
 158 521 l 1
 206 699 366 703 394 703 c 0
 527 703 610 614 610 518 c 0
 610 450 575 394 484 355 c 1
 506 343 573 291 573 201 c 0
 573 72 453 -19 313 -19 c 0
 202 -19 86 37 75 177 c 1
EndSplineSet
EndChar

StartChar: threequarters
Encoding: 325 190 207
Width: 834
Flags: HMW
HStem: -19 21G<149 149 149 222> -11 21G<648 712 648 648> 60 54<571 662 739 772> 341 57<243 299 243 313.5> 652 51<276.5 315.5>
VStem: 339 72<439 471.5> 357 70<585 623>
LayerCount: 2
Fore
SplineSet
149 -19 m 1
 782 703 l 1
 861 703 l 1
 222 -19 l 1
 149 -19 l 1
130 442 m 1
 195 450 l 1
 201 435 216 398 270 398 c 0
 328 398 339 430 339 448 c 0
 339 495 292 504 257 504 c 1
 267 555 l 1
 310 556 357 562 357 608 c 0
 357 638 330 652 301 652 c 0
 252 652 240 623 233 604 c 1
 166 613 l 1
 182 672 234 703 301 703 c 0
 369 703 427 668 427 608 c 0
 427 560 395 538 351 529 c 1
 351 527 l 1
 374 517 411 502 411 448 c 0
 411 391 355 341 272 341 c 0
 197 341 146 383 130 442 c 1
571 114 m 1
 672 114 l 1
 701 237 l 1
 699 239 l 1
 571 114 l 1
485 60 m 1
 496 117 l 1
 730 341 l 1
 784 341 l 1
 739 114 l 1
 784 114 l 1
 772 60 l 1
 727 60 l 1
 712 -11 l 1
 648 -11 l 1
 662 60 l 1
 485 60 l 1
EndSplineSet
EndChar

StartChar: threesuperior
Encoding: 326 179 208
Width: 333
Flags: HMW
HStem: 270 68<221.5 287 221.5 301.5> 642 61<260 306>
VStem: 334 84<397 430 364 436> 354 82<564 607>
LayerCount: 2
Fore
SplineSet
90 391 m 1
 166 400 l 1
 173 383 190 338 253 338 c 0
 321 338 334 386 334 408 c 0
 334 464 278 464 238 464 c 1
 250 526 l 1
 300 527 354 535 354 589 c 0
 354 625 323 642 289 642 c 0
 231 642 218 608 210 585 c 1
 131 595 l 1
 151 666 211 703 289 703 c 0
 369 703 436 665 436 593 c 0
 436 535 398 507 347 495 c 1
 347 493 l 1
 374 480 418 462 418 398 c 0
 418 330 350 270 253 270 c 0
 166 270 108 321 90 391 c 1
EndSplineSet
EndChar

StartChar: tilde
Encoding: 196 732 209
Width: 333
Flags: HMW
HStem: 606 21G<373 416> 607 112 650 69 702 20G<197 249>
VStem: 125 67<607 607> 425 65<719 719>
LayerCount: 2
Fore
SplineSet
125 607 m 1
 142 668 160 722 234 722 c 0
 264 722 298 705 331 692 c 0
 350 685 369 679 386 679 c 0
 414 679 420 704 425 719 c 1
 490 719 l 1
 484 663 448 606 384 606 c 0
 362 606 343 615 323 625 c 0
 299 637 272 650 237 650 c 0
 210 650 198 632 192 607 c 1
 125 607 l 1
EndSplineSet
EndChar

StartChar: trademark
Encoding: 327 8482 210
Width: 1000
Flags: HMW
HStem: 306 21G<200 200 200 271 484 550 484 484 665 665 665 731 842 842 842 908> 657 61<208 327 186 560 398 398 398 539 676 676 676 678>
VStem: 671 61
LayerCount: 2
Fore
SplineSet
484 306 m 1
 632 718 l 1
 738 718 l 1
 727 389 l 1
 729 389 l 1
 952 718 l 1
 1056 718 l 1
 908 306 l 1
 842 306 l 1
 966 651 l 1
 964 651 l 1
 731 306 l 1
 665 306 l 1
 678 657 l 1
 676 657 l 1
 550 306 l 1
 484 306 l 1
200 306 m 1
 327 657 l 1
 186 657 l 1
 208 718 l 1
 560 718 l 1
 539 657 l 1
 398 657 l 1
 271 306 l 1
 200 306 l 1
EndSplineSet
EndChar

StartChar: two
Encoding: 50 50 211
Width: 556
Flags: HMW
HStem: 0 79<153 475> 632 76
VStem: 463 94<473.5 548.5>
LayerCount: 2
Fore
SplineSet
23 0 m 1
 50 133 112 177 294 312 c 0
 379 376 463 432 463 515 c 0
 463 582 405 627 333 627 c 0
 241 627 198 557 185 490 c 1
 94 501 l 1
 110 599 176 703 333 703 c 0
 479 703 557 614 557 515 c 0
 557 422 462 336 432 312 c 0
 364 252 239 197 153 79 c 1
 493 79 l 1
 475 0 l 1
 23 0 l 1
EndSplineSet
EndChar

StartChar: twosuperior
Encoding: 328 178 212
Width: 333
Flags: HMW
HStem: 281 68<201 404> 575 128 635 68<264 314>
VStem: 362 87<563.5 596>
LayerCount: 2
Fore
SplineSet
64 281 m 1
 83 343 119 407 271 492 c 0
 332 525 362 544 362 583 c 0
 362 609 339 635 289 635 c 0
 239 635 211 619 194 571 c 1
 107 579 l 1
 131 663 192 703 289 703 c 0
 409 703 449 638 449 583 c 0
 449 514 395 476 328 437 c 0
 249 391 224 376 201 349 c 1
 418 349 l 1
 404 281 l 1
 64 281 l 1
EndSplineSet
EndChar

StartChar: u
Encoding: 117 117 213
Width: 556
Flags: HMW
HStem: -15 74<234.5 278> -3 21G<410 410 410 492> 503 20G<170 253 253 253 512 600 600 600>
LayerCount: 2
Fore
SplineSet
410 -3 m 1
 430 91 l 1
 380 35 317 -15 239 -15 c 0
 136 -15 94 35 94 98 c 0
 94 125 98 157 104 189 c 2
 170 523 l 1
 253 523 l 1
 188 189 l 1
 158 71 204 59 265 59 c 0
 299 59 340 71 383 112 c 0
 437 164 451 227 465 298 c 2
 512 523 l 1
 600 523 l 1
 492 -3 l 1
 410 -3 l 1
EndSplineSet
EndChar

StartChar: uacute
Encoding: 329 250 214
Width: 556
Flags: HMW
HStem: -15 74<221 266.5> -3 62 506 20G<169 260 260 260 509 600 600 600> 714 20G<425 537 537 537>
LayerCount: 2
Fore
SplineSet
334 599 m 1
 425 734 l 1
 537 734 l 1
 407 599 l 1
 334 599 l 1
403 -3 m 1
 424 92 l 1
 372 35 307 -15 226 -15 c 0
 129 -15 94 46 94 127 c 0
 94 148 96 169 100 192 c 2
 169 526 l 1
 260 526 l 1
 187 190 l 2
 172 117 189 59 253 59 c 0
 379 59 438 194 460 300 c 2
 509 526 l 1
 600 526 l 1
 488 -3 l 1
 403 -3 l 1
EndSplineSet
EndChar

StartChar: ucircumflex
Encoding: 330 251 215
Width: 556
Flags: HMW
HStem: -15 74<221 266.5> -3 62 506 20G<169 260 260 260 509 600 600 600> 599 135<252 479 252 479 462 462 462 479 382 540>
LayerCount: 2
Fore
SplineSet
252 599 m 1
 382 734 l 1
 479 734 l 1
 540 599 l 1
 462 599 l 1
 423 686 l 1
 343 599 l 1
 252 599 l 1
403 -3 m 1
 424 92 l 1
 372 35 307 -15 226 -15 c 0
 129 -15 94 46 94 127 c 0
 94 148 96 169 100 192 c 2
 169 526 l 1
 260 526 l 1
 187 190 l 2
 172 117 189 59 253 59 c 0
 379 59 438 194 460 300 c 2
 509 526 l 1
 600 526 l 1
 488 -3 l 1
 403 -3 l 1
EndSplineSet
EndChar

StartChar: udieresis
Encoding: 331 252 216
Width: 556
Flags: HMW
HStem: -15 74<221 266.5> -3 62 506 20G<169 260 260 260 509 600 600 600> 606 100<246 359 267 338 267 426 447 518>
LayerCount: 2
Fore
SplineSet
246 606 m 1
 267 706 l 1
 359 706 l 1
 338 606 l 1
 246 606 l 1
426 606 m 1
 447 706 l 1
 539 706 l 1
 518 606 l 1
 426 606 l 1
403 -3 m 1
 424 92 l 1
 372 35 307 -15 226 -15 c 0
 129 -15 94 46 94 127 c 0
 94 148 96 169 100 192 c 2
 169 526 l 1
 260 526 l 1
 187 190 l 2
 172 117 189 59 253 59 c 0
 379 59 438 194 460 300 c 2
 509 526 l 1
 600 526 l 1
 488 -3 l 1
 403 -3 l 1
EndSplineSet
EndChar

StartChar: ugrave
Encoding: 332 249 217
Width: 556
Flags: HMW
HStem: -15 74<221 266.5> -3 62 506 20G<169 260 260 260 509 600 600 600> 595 139<386 386 386 399 288 458>
LayerCount: 2
Fore
SplineSet
386 595 m 1
 288 734 l 1
 399 734 l 1
 458 595 l 1
 386 595 l 1
403 -3 m 1
 424 92 l 1
 372 35 307 -15 226 -15 c 0
 129 -15 94 46 94 127 c 0
 94 148 96 169 100 192 c 2
 169 526 l 1
 260 526 l 1
 187 190 l 2
 172 117 189 59 253 59 c 0
 379 59 438 194 460 300 c 2
 509 526 l 1
 600 526 l 1
 488 -3 l 1
 403 -3 l 1
EndSplineSet
EndChar

StartChar: underscore
Encoding: 95 95 218
Width: 556
Flags: HMW
HStem: -125 50<-27 540 -27 540>
LayerCount: 2
Fore
SplineSet
-27 -75 m 1
 540 -75 l 1
 540 -125 l 1
 -27 -125 l 1
 -27 -75 l 1
EndSplineSet
EndChar

StartChar: v
Encoding: 118 118 219
Width: 500
Flags: HMW
HStem: 0 21G<205 205 205 304> 503 20G<119 206 206 206 508 603 603 603>
LayerCount: 2
Fore
SplineSet
205 0 m 1
 119 523 l 1
 206 523 l 1
 267 81 l 1
 269 81 l 1
 508 523 l 1
 603 523 l 1
 304 0 l 1
 205 0 l 1
EndSplineSet
EndChar

StartChar: w
Encoding: 119 119 220
Width: 722
Flags: HMW
HStem: 0 21G<179 179 179 271 477 477 477 568> 503 20G<125 210 210 210 425 521 521 521 733 820 820 820>
VStem: 465 66
LayerCount: 2
Fore
SplineSet
179 0 m 1
 125 523 l 1
 210 523 l 1
 243 98 l 1
 245 98 l 1
 425 523 l 1
 521 523 l 1
 542 103 l 1
 544 103 l 1
 733 523 l 1
 820 523 l 1
 568 0 l 1
 477 0 l 1
 453 418 l 1
 271 0 l 1
 179 0 l 1
EndSplineSet
EndChar

StartChar: x
Encoding: 120 120 221
Width: 500
Flags: HMW
HStem: 0 21G<11 11 11 131 394 394 394 499> 503 20G<115 220 220 220 477 594 594 594>
LayerCount: 2
Fore
SplineSet
11 0 m 1
 255 268 l 1
 115 523 l 1
 220 523 l 1
 315 333 l 1
 477 523 l 1
 594 523 l 1
 359 260 l 1
 499 0 l 1
 394 0 l 1
 297 192 l 1
 131 0 l 1
 11 0 l 1
EndSplineSet
EndChar

StartChar: y
Encoding: 121 121 222
Width: 500
Flags: HMW
HStem: -214 21G<61.5 116.5> 503 20G<111 201 201 201 504 600 600 600>
LayerCount: 2
Fore
SplineSet
20 -122 m 1
 103 -146 126 -133 200 -4 c 1
 111 523 l 1
 201 523 l 1
 262 101 l 1
 504 523 l 1
 600 523 l 1
 256 -72 l 2
 216 -144 163 -214 70 -214 c 0
 53 -214 35 -212 15 -207 c 1
 20 -122 l 1
EndSplineSet
EndChar

StartChar: yacute
Encoding: 333 253 223
Width: 500
Flags: HMW
HStem: -214 21G<70.5 125> 511 20G<110 201 201 201 504 600 600 600> 714 20G<374 491 491 491>
VStem: 480 96
LayerCount: 2
Fore
SplineSet
279 596 m 1
 374 734 l 1
 491 734 l 1
 355 596 l 1
 279 596 l 1
20 -119 m 1
 33 -123 49 -127 75 -127 c 0
 94 -127 144 -130 200 -1 c 1
 110 531 l 1
 201 531 l 1
 261 104 l 1
 263 104 l 1
 504 531 l 1
 600 531 l 1
 256 -70 l 2
 217 -137 172 -214 78 -214 c 0
 63 -214 41 -213 15 -204 c 1
 20 -119 l 1
EndSplineSet
EndChar

StartChar: ydieresis
Encoding: 334 255 224
Width: 500
Flags: HMW
HStem: -214 86<70.5 93.5 62 125> 605 101<224 341 245 319 245 411 433 507>
LayerCount: 2
Fore
SplineSet
224 605 m 1
 245 706 l 1
 341 706 l 1
 319 605 l 1
 224 605 l 1
411 605 m 1
 433 706 l 1
 529 706 l 1
 507 605 l 1
 411 605 l 1
20 -120 m 1
 33 -124 49 -128 75 -128 c 0
 112 -128 124 -133 200 -3 c 1
 110 523 l 1
 201 523 l 1
 261 101 l 1
 263 101 l 1
 504 523 l 1
 600 523 l 1
 256 -71 l 2
 217 -138 172 -214 78 -214 c 0
 63 -214 41 -213 15 -204 c 1
 20 -120 l 1
EndSplineSet
EndChar

StartChar: yen
Encoding: 165 165 225
Width: 556
Flags: HMW
HStem: 0 21G<245 331 245 245> 299 64<123 284 123 307 110 284 448 586> 668 20G<157 245 245 245 591 699 699 699>
LayerCount: 2
Fore
SplineSet
81 154 m 1
 95 219 l 1
 291 219 l 1
 307 299 l 1
 110 299 l 1
 123 363 l 1
 284 363 l 1
 157 688 l 1
 245 688 l 1
 362 363 l 1
 364 363 l 1
 591 688 l 1
 699 688 l 1
 448 363 l 1
 600 363 l 1
 586 299 l 1
 394 299 l 1
 378 219 l 1
 572 219 l 1
 558 154 l 1
 364 154 l 1
 331 0 l 1
 245 0 l 1
 277 154 l 1
 81 154 l 1
EndSplineSet
EndChar

StartChar: z
Encoding: 122 122 226
Width: 500
Flags: HMW
HStem: 0 79<171 489> 449 74<131 424 114 571>
VStem: 31 540<0 523>
LayerCount: 2
Fore
SplineSet
31 0 m 1
 46 69 l 1
 424 449 l 1
 114 449 l 1
 131 523 l 1
 571 523 l 1
 559 467 l 1
 171 79 l 1
 506 79 l 1
 489 0 l 1
 31 0 l 1
EndSplineSet
EndChar

StartChar: zcaron
Encoding: 335 382 227
Width: 500
Flags: HMW
HStem: 0 80<171 489> 596 138<309 309 309 327 242 415>
LayerCount: 2
Fore
SplineSet
309 596 m 1
 242 734 l 1
 327 734 l 1
 370 645 l 1
 458 734 l 1
 558 734 l 1
 415 596 l 1
 309 596 l 1
31 0 m 1
 46 70 l 1
 424 452 l 1
 422 454 l 1
 114 454 l 1
 131 528 l 1
 571 528 l 1
 559 472 l 1
 171 80 l 1
 506 80 l 1
 489 0 l 1
 31 0 l 1
EndSplineSet
EndChar

StartChar: zero
Encoding: 48 48 228
Width: 556
Flags: HMW
HStem: -19 69<263 383.5 263 402.5> 634 69<311 447 299 463.5>
VStem: 110 88 514 88
LayerCount: 2
Fore
SplineSet
181 207 m 0
 181 100 230 50 296 50 c 0
 471 50 520 382 520 465 c 0
 520 497 519 634 408 634 c 0
 214 634 181 230 181 207 c 0
93 207 m 0
 93 380 191 703 407 703 c 0
 487 703 608 652 608 465 c 0
 608 277 514 -19 291 -19 c 0
 194 -19 93 31 93 207 c 0
EndSplineSet
EndChar
